<svg width="15" height="20" viewBox="0 0 15 20" fill="none" xmlns="http://www.w3.org/2000/svg">
<path d="M12.1965 11.2085L14.2275 16.7535M7.254 19.5L1 1.4415C3.2205 1.5585 6.1425 1.091 8.091 0L11.3825 8.987M9.8155 8.8365L10.4525 6.498M7.9355 15.74L8.984 11.89M1.0395 17.4935L3.4555 8.559" stroke="#78726E" stroke-linecap="round" stroke-linejoin="round"/>
<path d="M9.79544 4.68994C7.35306 4.85113 4.96544 5.48646 2.76594 6.56044M3.00294 10.2314C4.50694 10.1104 7.46794 9.25344 8.46144 8.59094C9.43994 9.03594 13.5064 8.84394 13.8964 9.75994C14.2864 10.6759 10.7214 11.9999 8.65644 11.8829C6.59144 11.7659 2.89144 10.6454 2.89144 10.6454M1.50244 15.7814C3.06544 14.4349 5.95994 12.3929 8.48694 13.7159M6.91294 18.5159C8.13044 16.7729 9.02494 14.7909 13.6814 15.3829" stroke="#78726E" stroke-linecap="round" stroke-linejoin="round"/>
</svg>
