<svg width="20" height="20" viewBox="0 0 20 20" fill="none" xmlns="http://www.w3.org/2000/svg">
<path d="M17.986 10.9208C17.986 12.7403 17.9923 14.5609 17.9829 16.3804C17.9766 17.41 17.7017 17.7385 16.7382 17.8044C13.3024 18.0399 9.86336 18.2409 6.42854 18.4927C5.56405 18.5564 5.06809 18.1653 4.47 17.5559C2.45039 15.503 1.8007 13.1033 2.05026 10.2412C2.2398 8.06943 2.0829 5.86637 2.08922 3.67735C2.09238 2.57312 2.29771 2.303 3.36332 2.21332C6.48856 1.94861 9.6138 1.69254 12.7433 1.50346C13.2592 1.47213 13.8573 1.69254 14.309 1.9767C15.3357 2.6239 16.2813 3.40615 17.289 4.08793C17.8228 4.44988 18.0102 4.89287 17.9987 5.54007C17.9639 7.33256 17.9871 9.12721 17.986 10.9208ZM11.0785 16.8849L11.0806 16.9184C12.6716 16.8147 14.2616 16.6753 15.8548 16.6224C16.6277 16.5975 16.8815 16.2853 16.8741 15.5171C16.8478 12.482 16.8657 9.44702 16.8625 6.412C16.8614 5.38016 16.8025 5.32073 15.8137 5.38016C12.6559 5.5714 9.50008 5.78858 6.34009 5.95064C5.61248 5.98846 5.35345 6.25101 5.36082 6.99869C5.38925 10.0337 5.3703 13.0687 5.37451 16.1038C5.37556 17.0762 5.55773 17.2296 6.53384 17.1658C8.04802 17.0675 9.56326 16.9778 11.0774 16.8838L11.0785 16.8849ZM15.4842 4.23811C15.501 4.1614 15.5178 4.08469 15.5347 4.00905C14.527 3.14792 13.5783 2.28463 12.0441 2.46075C9.77596 2.72006 7.48889 2.80542 5.2113 2.97937C4.66691 3.02043 4.12673 3.11767 3.39491 3.21491C4.42894 4.14627 5.19024 5.00092 6.5907 4.80752C8.16385 4.59034 9.76438 4.58926 11.3533 4.4931C12.7306 4.4099 14.1069 4.32455 15.4831 4.24027L15.4842 4.23811Z" fill="#78726E"/>
<path d="M9.20657 10.214C9.20657 11.6002 9.16234 12.9886 9.24553 14.3694C9.26132 14.6341 9.78149 14.8653 10.1669 15.196C9.21499 15.8432 8.18307 15.5287 7.19327 15.6217C7.19327 15.4607 7.18064 15.371 7.19538 15.3667C8.10937 15.0706 7.97985 14.3078 7.97353 13.585C7.96195 12.2117 7.94405 10.8374 7.9809 9.46627C7.9988 8.82232 7.96932 8.29937 7.18275 8.32314C7.1659 8.2205 7.13326 8.15351 7.15326 8.12218C7.67449 7.32587 9.95418 7.29454 10.4617 8.07788C11.3715 9.48032 12.2749 10.886 13.3111 12.4916V8.10489C13.0878 8.04762 12.8299 7.98172 12.3676 7.86286C13.2974 6.91314 14.3125 7.35073 15.3002 7.17029C15.2307 7.4242 15.2149 7.66838 15.1517 7.68243C14.3451 7.8607 14.5157 8.50142 14.5146 9.05354C14.5094 10.8493 14.5315 12.645 14.4946 14.4407C14.4883 14.7465 14.2988 15.25 14.0966 15.3094C13.6733 15.4337 13.1563 15.4131 12.734 15.2738C12.4708 15.1873 12.2834 14.7919 12.1054 14.5066C11.2041 13.0664 10.3175 11.6164 9.42559 10.1697C9.35293 10.1848 9.28028 10.1988 9.20762 10.214H9.20657Z" fill="#78726E"/>
</svg>
