<svg xmlns="http://www.w3.org/2000/svg" width="394" height="70" fill="none">
  <path fill="#fff" d="M0 0h394v70H0z"/>
  <path fill="#AF2F5A" d="M19.6364 30.7812c-.179-.6221-.4304-1.1718-.7543-1.6491-.3239-.4858-.7202-.8949-1.1889-1.2273-.4602-.3409-.9887-.6008-1.5852-.7798-.5881-.179-1.2401-.2685-1.956-.2685-1.3381 0-2.5142.3324-3.5284.9972-1.0057.6648-1.78979 1.6321-2.35229 2.902-.5625 1.2613-.84375 2.804-.84375 4.6278 0 1.8239.27699 3.375.83096 4.6534.55398 1.2784 1.33807 2.2543 2.35228 2.9276 1.0142.6648 2.2116.9971 3.5923.9971 1.2529 0 2.3225-.2215 3.2088-.6647.8949-.4517 1.5767-1.0867 2.0455-1.9049.4773-.8181.7159-1.7855.7159-2.9019l1.125.1661h-6.75v-4.1676h10.956v3.2983c0 2.3012-.4858 4.2784-1.4574 5.9319-.9716 1.6448-2.3097 2.9147-4.0142 3.8096-1.7046.8864-3.6563 1.3296-5.8551 1.3296-2.4546 0-4.61084-.5412-6.46879-1.6236-1.85796-1.0909-3.30682-2.6378-4.34659-4.6406-1.03125-2.0114-1.54688-4.3978-1.54688-7.1591 0-2.1222.30682-4.0142.92046-5.6762.62215-1.6704 1.49147-3.0852 2.60795-4.2443 1.11648-1.1591 2.41619-2.0412 3.89915-2.6463 1.483-.6051 3.0895-.9077 4.8196-.9077 1.483 0 2.8636.2174 4.142.652 1.2785.4262 2.412 1.0313 3.4006 1.8154.9972.784 1.8111 1.7173 2.4418 2.7997.6307 1.0738 1.0355 2.2585 1.2145 3.5539h-5.625ZM28.9423 48.5V22.3182h10.3295c1.9773 0 3.6648.3537 5.0625 1.0611 1.4063.6988 2.4759 1.6917 3.2088 2.9787.7415 1.2784 1.1123 2.7826 1.1123 4.5127 0 1.7387-.375 3.2344-1.125 4.4873-.75 1.2443-1.8367 2.1988-3.26 2.8636-1.4148.6648-3.1278.9972-5.1392.9972H32.215v-4.4489h6.0213c1.0568 0 1.9347-.1449 2.6335-.4347.6989-.2897 1.2188-.7244 1.5597-1.304.3494-.5795.5242-1.2997.5242-2.1605 0-.8693-.1748-1.6022-.5242-2.1988-.3409-.5966-.8651-1.0483-1.5724-1.3551-.6989-.3154-1.581-.473-2.6463-.473h-3.733V48.5h-5.5355Zm14.1392-11.9148L49.5886 48.5h-6.1108l-6.3665-11.9148h5.9702Zm32.8254-1.1761c0 2.8551-.5411 5.2841-1.6235 7.2869-1.0739 2.0029-2.5398 3.5327-4.3978 4.5895-1.8494 1.0483-3.9289 1.5725-6.2386 1.5725-2.3267 0-4.4148-.5285-6.2642-1.5853-1.8494-1.0568-3.3111-2.5866-4.3849-4.5895-1.0739-2.0028-1.6108-4.4275-1.6108-7.2741 0-2.8551.5369-5.2841 1.6108-7.2869 1.0738-2.0029 2.5355-3.5285 4.3849-4.5767 1.8494-1.0569 3.9375-1.5853 6.2642-1.5853 2.3097 0 4.3892.5284 6.2386 1.5853 1.858 1.0482 3.3239 2.5738 4.3978 4.5767 1.0824 2.0028 1.6235 4.4318 1.6235 7.2869Zm-5.6122 0c0-1.8494-.277-3.4091-.8309-4.679-.5455-1.2699-1.3168-2.2329-2.314-2.8892-.9971-.6562-2.1647-.9844-3.5028-.9844-1.3381 0-2.5057.3282-3.5028.9844-.9972.6563-1.7728 1.6193-2.3267 2.8892-.5455 1.2699-.8182 2.8296-.8182 4.679 0 1.8494.2727 3.4091.8182 4.679.5539 1.2699 1.3295 2.2329 2.3267 2.8892.9971.6562 2.1647.9843 3.5028.9843 1.3381 0 2.5057-.3281 3.5028-.9843.9972-.6563 1.7685-1.6193 2.314-2.8892.5539-1.2699.8309-2.8296.8309-4.679ZM84.1965 48.5l-7.4914-26.1818h6.0468l4.3338 18.1917h.2174l4.7812-18.1917h5.1776l4.7681 18.2301h.23l4.334-18.2301h6.047L105.15 48.5h-5.3952L94.769 31.3821h-.2046L89.5914 48.5h-5.3949Zm30.6875 0V22.3182h5.535v21.6179h11.225V48.5h-16.76Zm26.32-21.6179v-4.5639h21.503v4.5639h-8.015V48.5h-5.472V26.8821h-8.016Zm47.189 8.527c0 2.8551-.541 5.2841-1.624 7.2869-1.074 2.0029-2.539 3.5327-4.397 4.5895-1.85 1.0483-3.929 1.5725-6.239 1.5725-2.327 0-4.415-.5285-6.264-1.5853-1.85-1.0568-3.311-2.5866-4.385-4.5895-1.074-2.0028-1.611-4.4275-1.611-7.2741 0-2.8551.537-5.2841 1.611-7.2869 1.074-2.0029 2.535-3.5285 4.385-4.5767 1.849-1.0569 3.937-1.5853 6.264-1.5853 2.31 0 4.389.5284 6.239 1.5853 1.858 1.0482 3.323 2.5738 4.397 4.5767 1.083 2.0028 1.624 4.4318 1.624 7.2869Zm-5.612 0c0-1.8494-.277-3.4091-.831-4.679-.546-1.2699-1.317-2.2329-2.314-2.8892-.997-.6562-2.165-.9844-3.503-.9844s-2.506.3282-3.503.9844c-.997.6563-1.773 1.6193-2.327 2.8892-.545 1.2699-.818 2.8296-.818 4.679 0 1.8494.273 3.4091.818 4.679.554 1.2699 1.33 2.2329 2.327 2.8892.997.6562 2.165.9843 3.503.9843s2.506-.3281 3.503-.9843c.997-.6563 1.768-1.6193 2.314-2.8892.554-1.2699.831-2.8296.831-4.679Zm28.737-2.1605v4.321h-11.941v-4.321h11.941ZM229.046 48.5l-7.492-26.1818h6.047l4.334 18.1917h.217l4.782-18.1917h5.177l4.769 18.2301h.23l4.334-18.2301h6.047L249.999 48.5h-5.395l-4.986-17.1179h-.204L234.441 48.5h-5.395Zm53.27-13.0909c0 2.8551-.541 5.2841-1.623 7.2869-1.074 2.0029-2.54 3.5327-4.398 4.5895-1.849 1.0483-3.929 1.5725-6.239 1.5725-2.326 0-4.414-.5285-6.264-1.5853-1.849-1.0568-3.311-2.5866-4.385-4.5895-1.074-2.0028-1.611-4.4275-1.611-7.2741 0-2.8551.537-5.2841 1.611-7.2869 1.074-2.0029 2.536-3.5285 4.385-4.5767 1.85-1.0569 3.938-1.5853 6.264-1.5853 2.31 0 4.39.5284 6.239 1.5853 1.858 1.0482 3.324 2.5738 4.398 4.5767 1.082 2.0028 1.623 4.4318 1.623 7.2869Zm-5.612 0c0-1.8494-.277-3.4091-.831-4.679-.545-1.2699-1.317-2.2329-2.314-2.8892-.997-.6562-2.165-.9844-3.503-.9844s-2.505.3282-3.502.9844c-.998.6563-1.773 1.6193-2.327 2.8892-.546 1.2699-.818 2.8296-.818 4.679 0 1.8494.272 3.4091.818 4.679.554 1.2699 1.329 2.2329 2.327 2.8892.997.6562 2.164.9843 3.502.9843 1.338 0 2.506-.3281 3.503-.9843.997-.6563 1.769-1.6193 2.314-2.8892.554-1.2699.831-2.8296.831-4.679ZM285.697 48.5V22.3182h10.329c1.978 0 3.665.3537 5.063 1.0611 1.406.6988 2.476 1.6917 3.209 2.9787.741 1.2784 1.112 2.7826 1.112 4.5127 0 1.7387-.375 3.2344-1.125 4.4873-.75 1.2443-1.837 2.1988-3.26 2.8636-1.415.6648-3.128.9972-5.139.9972h-6.916v-4.4489h6.021c1.057 0 1.935-.1449 2.633-.4347.699-.2897 1.219-.7244 1.56-1.304.349-.5795.524-1.2997.524-2.1605 0-.8693-.175-1.6022-.524-2.1988-.341-.5966-.865-1.0483-1.572-1.3551-.699-.3154-1.581-.473-2.647-.473h-3.733V48.5h-5.535Zm14.139-11.9148L306.343 48.5h-6.111l-6.366-11.9148h5.97ZM308.602 48.5V22.3182h5.535v21.6179h11.225V48.5h-16.76Zm28.987 0h-9.281V22.3182h9.358c2.633 0 4.9.5241 6.801 1.5724 1.9 1.0398 3.362 2.5355 4.385 4.4872 1.031 1.9517 1.547 4.287 1.547 7.0057 0 2.7273-.516 5.071-1.547 7.0313-1.023 1.9602-2.493 3.4645-4.411 4.5128-1.909 1.0483-4.193 1.5724-6.852 1.5724Zm-3.746-4.7429h3.516c1.636 0 3.013-.2898 4.129-.8693 1.125-.5881 1.969-1.4958 2.531-2.723.571-1.2358.857-2.8296.857-4.7813 0-1.9346-.286-3.5156-.857-4.7429-.562-1.2272-1.402-2.1307-2.518-2.7102-1.117-.5795-2.493-.8693-4.129-.8693h-3.529v16.696Zm43.196 4.5384-2.966-2.9404 7.785-7.7855h-18.243v-4.321h18.243l-7.785-7.7727 2.966-2.9532 12.886 12.8864-12.886 12.8864Z"/>
</svg>