<svg width="32" height="32" viewBox="0 0 32 32" fill="none" xmlns="http://www.w3.org/2000/svg">
<mask id="mask0_31_590" style="mask-type:alpha" maskUnits="userSpaceOnUse" x="0" y="0" width="32" height="32">
<rect y="32" width="32" height="32" transform="rotate(-90 0 32)" fill="#D9D9D9"/>
</mask>
<g mask="url(#mask0_31_590)">
<path d="M17.6101 27.9106C17.2057 28.9045 15.9188 29.1647 15.16 28.406L2.97083 16.2168C2.21205 15.458 2.47225 14.1711 3.46622 13.7667L22.9175 5.85307C24.5567 5.18616 26.1906 6.82011 25.5237 8.45931L17.6101 27.9106ZM15.8503 25.664L22.4289 9.59704C22.5966 9.18736 22.1885 8.77786 21.7783 8.94425L5.66564 15.4793L9.26646 19.0801L13.2224 16.7724C14.1126 16.2531 15.1113 17.2569 14.5875 18.1445L12.2653 22.079L15.8503 25.664Z" fill="#FF7710"/>
</g>
</svg>
