<svg width="192" height="113" viewBox="0 0 192 113" fill="none" xmlns="http://www.w3.org/2000/svg">
<ellipse cx="97.2071" cy="29.0726" rx="26.6173" ry="23.5482" fill="#DA6902"/>
<path d="M101.95 5.76683C101.95 10.8382 98.695 10.5186 97.2606 10.5186C95.8263 10.5186 92.7427 10.8255 92.7427 5.76683C92.7427 3.39055 94.8725 0 97.2606 0C99.6488 0 101.95 3.21668 101.95 5.76683Z" fill="#DA6902"/>
<path d="M109.856 9.44089C107.453 13.9069 104.738 12.0832 103.475 11.4036C102.212 10.724 99.3513 9.53322 101.748 5.07844C102.874 2.98582 106.356 1.00912 108.459 2.14064C110.562 3.27216 111.065 7.19514 109.856 9.44089Z" fill="#DA6902"/>
<path d="M116.111 14.8548C112.397 18.308 110.414 15.7066 109.438 14.6562C108.461 13.6057 106.136 11.5564 109.841 8.11185C111.581 6.49378 115.515 5.74483 117.141 7.49379C118.767 9.24275 117.978 13.1183 116.111 14.8548Z" fill="#DA6902"/>
<path d="M120.875 22.7185C116.385 25.076 115.155 22.0455 114.489 20.7756C113.822 19.5057 112.117 16.9182 116.595 14.5666C118.699 13.4619 122.691 13.7714 123.801 15.8859C124.912 18.0003 123.133 21.533 120.875 22.7185Z" fill="#DA6902"/>
<path d="M122.235 31.0917C117.193 31.6387 117.16 28.3683 117.005 26.9423C116.851 25.5163 116.213 22.4838 121.242 21.9382C123.604 21.6819 127.205 23.4336 127.462 25.8078C127.72 28.182 124.77 30.8166 122.235 31.0917Z" fill="#DA6902"/>
<path d="M84.405 9.44089C86.8078 13.9069 89.5228 12.0832 90.7859 11.4036C92.049 10.724 94.9099 9.53322 92.5131 5.07844C91.3872 2.98582 87.9052 1.00912 85.8021 2.14064C83.699 3.27216 83.1967 7.19514 84.405 9.44089Z" fill="#DA6902"/>
<path d="M78.1507 14.8548C81.8647 18.308 83.847 15.7066 84.8237 14.6562C85.8003 13.6057 88.1248 11.5564 84.4201 8.11185C82.6798 6.49378 78.7465 5.74483 77.1204 7.49379C75.4942 9.24275 76.2831 13.1183 78.1507 14.8548Z" fill="#DA6902"/>
<path d="M73.3853 22.7185C77.8753 25.076 79.1055 22.0455 79.7722 20.7756C80.439 19.5057 82.1442 16.9182 77.6654 14.5666C75.5615 13.4619 71.5695 13.7714 70.4593 15.8859C69.3491 18.0003 71.1274 21.533 73.3853 22.7185Z" fill="#DA6902"/>
<path d="M72.0262 31.0917C77.068 31.6387 77.1013 28.3683 77.256 26.9423C77.4107 25.5163 78.0484 22.4838 73.0193 21.9382C70.6569 21.6819 67.0564 23.4336 66.7988 25.8078C66.5412 28.182 69.4909 30.8166 72.0262 31.0917Z" fill="#DA6902"/>
<g filter="url(#filter0_i_1234_2292)">
<path d="M107.15 8.10611C104.855 11.6366 106.423 10.8022 109.183 12.8837C112.412 15.027 114.679 18.7862 114.213 10.5508C114.08 8.20184 113.605 5.38636 112.33 4.91926C111.056 4.45216 108.307 6.3272 107.15 8.10611Z" fill="#FFC851"/>
</g>
<g filter="url(#filter1_i_1234_2292)">
<path d="M87.149 8.11703C89.4193 11.7162 87.8466 10.8513 85.0286 12.9159C81.7363 15.0364 79.3927 18.803 79.9786 10.4886C80.1457 8.11703 80.6655 5.27891 81.9595 4.82475C83.2535 4.37058 86.0051 6.30348 87.149 8.11703Z" fill="#FFC851"/>
</g>
<g filter="url(#filter2_i_1234_2292)">
<ellipse cx="97.3456" cy="35.4897" rx="24.7479" ry="27.9565" fill="#FFC851"/>
</g>
<g filter="url(#filter3_d_1234_2292)">
<path d="M95.1407 25.2501C95.1407 26.6863 95.0448 27.1752 94.1685 27.1752C93.2922 27.1752 93.1963 26.778 93.1963 25.2501C93.1963 23.6 93.3563 23.325 94.1685 23.325C94.9807 23.325 95.1407 23.6611 95.1407 25.2501Z" fill="#030205"/>
</g>
<g filter="url(#filter4_d_1234_2292)">
<path d="M100.9 25.2695C100.885 26.7057 100.784 27.1936 99.9081 27.1848C99.0319 27.176 98.9399 26.7778 98.9553 25.25C98.9718 23.6 99.1346 23.3266 99.9467 23.3347C100.759 23.3429 100.916 23.6806 100.9 25.2695Z" fill="#030205"/>
</g>
<g filter="url(#filter5_d_1234_2292)">
<circle cx="95.4205" cy="31.0255" r="2.62267" fill="#F7F9F9"/>
<circle cx="98.9361" cy="31.193" r="2.62267" fill="#F7F9F9"/>
</g>
<g filter="url(#filter6_d_1234_2292)">
<ellipse cx="97.039" cy="28.7377" rx="1.17183" ry="1.06023" fill="#C56202"/>
</g>
<g filter="url(#filter7_d_1234_2292)">
<path d="M92.8479 28.473C94.2824 28.5426 94.762 28.7455 94.7309 29.3872C94.6997 30.029 94.2942 30.1888 92.7681 30.1147C91.1199 30.0346 90.8614 29.6879 90.8851 29.2004C90.9088 28.7129 91.2607 28.3958 92.8479 28.473Z" fill="#C56202"/>
</g>
<g filter="url(#filter8_d_1234_2292)">
<path d="M101.454 28.9251C100.075 29.3264 99.6561 29.6352 99.8356 30.2521C100.015 30.869 100.447 30.9302 101.914 30.5033C103.498 30.0422 103.669 29.6449 103.533 29.1762C103.396 28.7076 102.98 28.4811 101.454 28.9251Z" fill="#C56202"/>
</g>
<g filter="url(#filter9_d_1234_2292)">
<path d="M101.789 32.3224C100.405 31.9378 99.8861 31.9796 99.7141 32.5987C99.542 33.2177 99.8767 33.4969 101.349 33.906C102.939 34.348 103.293 34.1001 103.424 33.6298C103.554 33.1596 103.32 32.748 101.789 32.3224Z" fill="#C56202"/>
</g>
<g filter="url(#filter10_d_1234_2292)">
<path d="M92.3823 31.8285C93.6329 31.1222 94.1468 31.038 94.4627 31.5974C94.7786 32.1569 94.5209 32.5084 93.1905 33.2597C91.7536 34.0711 91.35 33.9157 91.1101 33.4907C90.8701 33.0657 90.9986 32.6098 92.3823 31.8285Z" fill="#C56202"/>
</g>
<g filter="url(#filter11_ii_1234_2292)">
<path d="M68.2789 28.336C68.2843 27.7251 68.9708 27.369 69.4734 27.7165V27.7165C69.9454 28.043 69.9003 28.7545 69.3908 29.0187V29.0187C68.8813 29.283 68.2738 28.91 68.2789 28.336V28.336Z" fill="#FFC851"/>
</g>
<path d="M73.3332 26.3855C73.6553 25.9058 74.3867 25.9995 74.5774 26.5449V26.5449C74.7494 27.037 74.3434 27.5381 73.8263 27.4719V27.4719C73.3092 27.4056 73.0426 26.8183 73.3332 26.3855V26.3855Z" fill="#FFC851"/>
<path d="M77.8508 28.5789C78.455 28.4605 78.9391 29.0763 78.6813 29.6354V29.6354C78.4452 30.1476 77.7512 30.2293 77.4026 29.7859V29.7859C77.0541 29.3425 77.2974 28.6874 77.8508 28.5789V28.5789Z" fill="#FFC851"/>
<path d="M78.2894 42.744C78.5643 47.5001 84.4555 58.173 83.3395 59.1217C78.0383 63.6276 66.5334 49.4371 65.204 41.8232C63.9764 34.7922 68.3847 23.8552 75.8646 27.4544C80.9958 30.3281 77.7314 33.0903 78.2894 42.744Z" fill="#FFC851"/>
<g filter="url(#filter12_di_1234_2292)">
<circle cx="72.8213" cy="33.2019" r="2.56686" fill="#D76900"/>
</g>
<g filter="url(#filter13_di_1234_2292)">
<circle cx="76.2815" cy="30.97" r="0.892822" fill="#D76900"/>
</g>
<g filter="url(#filter14_di_1234_2292)">
<circle cx="73.7698" cy="29.24" r="0.892822" fill="#D76900"/>
</g>
<g filter="url(#filter15_di_1234_2292)">
<circle cx="70.7009" cy="29.7422" r="0.892822" fill="#D76900"/>
</g>
<g filter="url(#filter16_ii_1234_2292)">
<path d="M126.246 27.8338C126.241 27.2229 125.554 26.8668 125.052 27.2143V27.2143C124.579 27.5408 124.625 28.2523 125.134 28.5165V28.5165C125.644 28.7808 126.251 28.4078 126.246 27.8338V27.8338Z" fill="#FFC851"/>
</g>
<path d="M121.191 25.8833C120.869 25.4036 120.138 25.4973 119.947 26.0427V26.0427C119.775 26.5348 120.181 27.0359 120.698 26.9697V26.9697C121.215 26.9034 121.482 26.3161 121.191 25.8833V25.8833Z" fill="#FFC851"/>
<path d="M116.674 28.0767C116.07 27.9583 115.586 28.5741 115.844 29.1332V29.1332C116.08 29.6454 116.774 29.7271 117.122 29.2837V29.2837C117.471 28.8403 117.228 28.1852 116.674 28.0767V28.0767Z" fill="#FFC851"/>
<path d="M116.235 42.2418C115.961 46.9979 110.069 57.6708 111.185 58.6195C116.487 63.1254 127.991 48.9349 129.321 41.321C130.549 34.29 126.14 23.353 118.66 26.9522C113.529 29.8259 116.794 32.5881 116.235 42.2418Z" fill="#FFC851"/>
<g filter="url(#filter17_di_1234_2292)">
<circle cx="2.56686" cy="2.56686" r="2.56686" transform="matrix(-1 0 0 1 124.27 30.1328)" fill="#D76900"/>
</g>
<g filter="url(#filter18_di_1234_2292)">
<circle cx="0.892822" cy="0.892822" r="0.892822" transform="matrix(-1 0 0 1 119.136 29.575)" fill="#D76900"/>
</g>
<g filter="url(#filter19_di_1234_2292)">
<circle cx="0.892822" cy="0.892822" r="0.892822" transform="matrix(-1 0 0 1 121.648 27.845)" fill="#D76900"/>
</g>
<g filter="url(#filter20_di_1234_2292)">
<circle cx="0.892822" cy="0.892822" r="0.892822" transform="matrix(-1 0 0 1 124.717 28.3472)" fill="#D76900"/>
</g>
<path d="M4.66406 99.5V87.8789L34.5469 41.2969H53.0039V87.6836H61.9883V99.5H53.0039V112H39.0391V99.5H4.66406ZM19.5078 87.6836H39.2344V57.4102H38.5508L19.5078 87.0977V87.6836ZM96 112.977C78.3242 112.977 67.582 99.793 67.582 76.6484C67.582 53.5039 78.3242 40.3203 96 40.3203C113.676 40.3203 124.418 53.6016 124.418 76.6484C124.418 99.8906 113.676 112.977 96 112.977ZM96 100.867C104.203 100.867 109.477 92.957 109.379 76.6484C109.379 60.5352 104.203 52.332 96 52.332C87.7969 52.332 82.6211 60.5352 82.6211 76.6484C82.5234 92.957 87.7969 100.867 96 100.867ZM130.402 99.5V87.8789L160.285 41.2969H178.742V87.6836H187.727V99.5H178.742V112H164.777V99.5H130.402ZM145.246 87.6836H164.973V57.4102H164.289L145.246 87.0977V87.6836Z" fill="white"/>
<defs>
<filter id="filter0_i_1234_2292" x="106.043" y="3.84668" width="33.2305" height="11.7805" filterUnits="userSpaceOnUse" color-interpolation-filters="sRGB">
<feFlood flood-opacity="0" result="BackgroundImageFix"/>
<feBlend mode="normal" in="SourceGraphic" in2="BackgroundImageFix" result="shape"/>
<feColorMatrix in="SourceAlpha" type="matrix" values="0 0 0 0 0 0 0 0 0 0 0 0 0 0 0 0 0 0 127 0" result="hardAlpha"/>
<feOffset dx="25" dy="-1"/>
<feGaussianBlur stdDeviation="25"/>
<feComposite in2="hardAlpha" operator="arithmetic" k2="-1" k3="1"/>
<feColorMatrix type="matrix" values="0 0 0 0 0.992157 0 0 0 0 0.733333 0 0 0 0 0.309804 0 0 0 1 0"/>
<feBlend mode="normal" in2="shape" result="effect1_innerShadow_1234_2292"/>
</filter>
<filter id="filter1_i_1234_2292" x="79.8887" y="3.75757" width="33.3457" height="11.8735" filterUnits="userSpaceOnUse" color-interpolation-filters="sRGB">
<feFlood flood-opacity="0" result="BackgroundImageFix"/>
<feBlend mode="normal" in="SourceGraphic" in2="BackgroundImageFix" result="shape"/>
<feColorMatrix in="SourceAlpha" type="matrix" values="0 0 0 0 0 0 0 0 0 0 0 0 0 0 0 0 0 0 127 0" result="hardAlpha"/>
<feOffset dx="25" dy="-1"/>
<feGaussianBlur stdDeviation="25"/>
<feComposite in2="hardAlpha" operator="arithmetic" k2="-1" k3="1"/>
<feColorMatrix type="matrix" values="0 0 0 0 0.992157 0 0 0 0 0.733333 0 0 0 0 0.309804 0 0 0 1 0"/>
<feBlend mode="normal" in2="shape" result="effect1_innerShadow_1234_2292"/>
</filter>
<filter id="filter2_i_1234_2292" x="72.5977" y="6.5332" width="74.4956" height="56.9131" filterUnits="userSpaceOnUse" color-interpolation-filters="sRGB">
<feFlood flood-opacity="0" result="BackgroundImageFix"/>
<feBlend mode="normal" in="SourceGraphic" in2="BackgroundImageFix" result="shape"/>
<feColorMatrix in="SourceAlpha" type="matrix" values="0 0 0 0 0 0 0 0 0 0 0 0 0 0 0 0 0 0 127 0" result="hardAlpha"/>
<feOffset dx="25" dy="-1"/>
<feGaussianBlur stdDeviation="40"/>
<feComposite in2="hardAlpha" operator="arithmetic" k2="-1" k3="1"/>
<feColorMatrix type="matrix" values="0 0 0 0 0.933333 0 0 0 0 0.662745 0 0 0 0 0.231373 0 0 0 0.6 0"/>
<feBlend mode="normal" in2="shape" result="effect1_innerShadow_1234_2292"/>
</filter>
<filter id="filter3_d_1234_2292" x="73.1963" y="13.325" width="41.9443" height="43.8503" filterUnits="userSpaceOnUse" color-interpolation-filters="sRGB">
<feFlood flood-opacity="0" result="BackgroundImageFix"/>
<feColorMatrix in="SourceAlpha" type="matrix" values="0 0 0 0 0 0 0 0 0 0 0 0 0 0 0 0 0 0 127 0" result="hardAlpha"/>
<feOffset dy="10"/>
<feGaussianBlur stdDeviation="10"/>
<feComposite in2="hardAlpha" operator="out"/>
<feColorMatrix type="matrix" values="0 0 0 0 0 0 0 0 0 0 0 0 0 0 0 0 0 0 0.5 0"/>
<feBlend mode="normal" in2="BackgroundImageFix" result="effect1_dropShadow_1234_2292"/>
<feBlend mode="normal" in="SourceGraphic" in2="effect1_dropShadow_1234_2292" result="shape"/>
</filter>
<filter id="filter4_d_1234_2292" x="78.9536" y="13.3345" width="41.9468" height="43.8503" filterUnits="userSpaceOnUse" color-interpolation-filters="sRGB">
<feFlood flood-opacity="0" result="BackgroundImageFix"/>
<feColorMatrix in="SourceAlpha" type="matrix" values="0 0 0 0 0 0 0 0 0 0 0 0 0 0 0 0 0 0 127 0" result="hardAlpha"/>
<feOffset dy="10"/>
<feGaussianBlur stdDeviation="10"/>
<feComposite in2="hardAlpha" operator="out"/>
<feColorMatrix type="matrix" values="0 0 0 0 0 0 0 0 0 0 0 0 0 0 0 0 0 0 0.5 0"/>
<feBlend mode="normal" in2="BackgroundImageFix" result="effect1_dropShadow_1234_2292"/>
<feBlend mode="normal" in="SourceGraphic" in2="effect1_dropShadow_1234_2292" result="shape"/>
</filter>
<filter id="filter5_d_1234_2292" x="62.7979" y="18.4028" width="68.7607" height="65.4128" filterUnits="userSpaceOnUse" color-interpolation-filters="sRGB">
<feFlood flood-opacity="0" result="BackgroundImageFix"/>
<feColorMatrix in="SourceAlpha" type="matrix" values="0 0 0 0 0 0 0 0 0 0 0 0 0 0 0 0 0 0 127 0" result="hardAlpha"/>
<feOffset dy="20"/>
<feGaussianBlur stdDeviation="15"/>
<feComposite in2="hardAlpha" operator="out"/>
<feColorMatrix type="matrix" values="0 0 0 0 0 0 0 0 0 0 0 0 0 0 0 0 0 0 0.36 0"/>
<feBlend mode="normal" in2="BackgroundImageFix" result="effect1_dropShadow_1234_2292"/>
<feBlend mode="normal" in="SourceGraphic" in2="effect1_dropShadow_1234_2292" result="shape"/>
</filter>
<filter id="filter6_d_1234_2292" x="75.8672" y="17.6775" width="42.3438" height="42.1204" filterUnits="userSpaceOnUse" color-interpolation-filters="sRGB">
<feFlood flood-opacity="0" result="BackgroundImageFix"/>
<feColorMatrix in="SourceAlpha" type="matrix" values="0 0 0 0 0 0 0 0 0 0 0 0 0 0 0 0 0 0 127 0" result="hardAlpha"/>
<feOffset dy="10"/>
<feGaussianBlur stdDeviation="10"/>
<feComposite in2="hardAlpha" operator="out"/>
<feColorMatrix type="matrix" values="0 0 0 0 0 0 0 0 0 0 0 0 0 0 0 0 0 0 0.25 0"/>
<feBlend mode="normal" in2="BackgroundImageFix" result="effect1_dropShadow_1234_2292"/>
<feBlend mode="normal" in="SourceGraphic" in2="effect1_dropShadow_1234_2292" result="shape"/>
</filter>
<filter id="filter7_d_1234_2292" x="70.8838" y="18.4614" width="43.8486" height="41.6699" filterUnits="userSpaceOnUse" color-interpolation-filters="sRGB">
<feFlood flood-opacity="0" result="BackgroundImageFix"/>
<feColorMatrix in="SourceAlpha" type="matrix" values="0 0 0 0 0 0 0 0 0 0 0 0 0 0 0 0 0 0 127 0" result="hardAlpha"/>
<feOffset dy="10"/>
<feGaussianBlur stdDeviation="10"/>
<feComposite in2="hardAlpha" operator="out"/>
<feColorMatrix type="matrix" values="0 0 0 0 0 0 0 0 0 0 0 0 0 0 0 0 0 0 0.5 0"/>
<feBlend mode="normal" in2="BackgroundImageFix" result="effect1_dropShadow_1234_2292"/>
<feBlend mode="normal" in="SourceGraphic" in2="effect1_dropShadow_1234_2292" result="shape"/>
</filter>
<filter id="filter8_d_1234_2292" x="79.7964" y="18.6858" width="43.7734" height="42.092" filterUnits="userSpaceOnUse" color-interpolation-filters="sRGB">
<feFlood flood-opacity="0" result="BackgroundImageFix"/>
<feColorMatrix in="SourceAlpha" type="matrix" values="0 0 0 0 0 0 0 0 0 0 0 0 0 0 0 0 0 0 127 0" result="hardAlpha"/>
<feOffset dy="10"/>
<feGaussianBlur stdDeviation="10"/>
<feComposite in2="hardAlpha" operator="out"/>
<feColorMatrix type="matrix" values="0 0 0 0 0 0 0 0 0 0 0 0 0 0 0 0 0 0 0.5 0"/>
<feBlend mode="normal" in2="BackgroundImageFix" result="effect1_dropShadow_1234_2292"/>
<feBlend mode="normal" in="SourceGraphic" in2="effect1_dropShadow_1234_2292" result="shape"/>
</filter>
<filter id="filter9_d_1234_2292" x="79.6729" y="22.0747" width="43.7817" height="42.0623" filterUnits="userSpaceOnUse" color-interpolation-filters="sRGB">
<feFlood flood-opacity="0" result="BackgroundImageFix"/>
<feColorMatrix in="SourceAlpha" type="matrix" values="0 0 0 0 0 0 0 0 0 0 0 0 0 0 0 0 0 0 127 0" result="hardAlpha"/>
<feOffset dy="10"/>
<feGaussianBlur stdDeviation="10"/>
<feComposite in2="hardAlpha" operator="out"/>
<feColorMatrix type="matrix" values="0 0 0 0 0 0 0 0 0 0 0 0 0 0 0 0 0 0 0.5 0"/>
<feBlend mode="normal" in2="BackgroundImageFix" result="effect1_dropShadow_1234_2292"/>
<feBlend mode="normal" in="SourceGraphic" in2="effect1_dropShadow_1234_2292" result="shape"/>
</filter>
<filter id="filter10_d_1234_2292" x="71.0132" y="21.231" width="43.5713" height="42.6084" filterUnits="userSpaceOnUse" color-interpolation-filters="sRGB">
<feFlood flood-opacity="0" result="BackgroundImageFix"/>
<feColorMatrix in="SourceAlpha" type="matrix" values="0 0 0 0 0 0 0 0 0 0 0 0 0 0 0 0 0 0 127 0" result="hardAlpha"/>
<feOffset dy="10"/>
<feGaussianBlur stdDeviation="10"/>
<feComposite in2="hardAlpha" operator="out"/>
<feColorMatrix type="matrix" values="0 0 0 0 0 0 0 0 0 0 0 0 0 0 0 0 0 0 0.5 0"/>
<feBlend mode="normal" in2="BackgroundImageFix" result="effect1_dropShadow_1234_2292"/>
<feBlend mode="normal" in="SourceGraphic" in2="effect1_dropShadow_1234_2292" result="shape"/>
</filter>
<filter id="filter11_ii_1234_2292" x="60.2788" y="26.5801" width="17.5229" height="2.52515" filterUnits="userSpaceOnUse" color-interpolation-filters="sRGB">
<feFlood flood-opacity="0" result="BackgroundImageFix"/>
<feBlend mode="normal" in="SourceGraphic" in2="BackgroundImageFix" result="shape"/>
<feColorMatrix in="SourceAlpha" type="matrix" values="0 0 0 0 0 0 0 0 0 0 0 0 0 0 0 0 0 0 127 0" result="hardAlpha"/>
<feOffset dx="8" dy="-1"/>
<feGaussianBlur stdDeviation="10"/>
<feComposite in2="hardAlpha" operator="arithmetic" k2="-1" k3="1"/>
<feColorMatrix type="matrix" values="0 0 0 0 0.92549 0 0 0 0 0.733333 0 0 0 0 0.333333 0 0 0 1 0"/>
<feBlend mode="normal" in2="shape" result="effect1_innerShadow_1234_2292"/>
<feColorMatrix in="SourceAlpha" type="matrix" values="0 0 0 0 0 0 0 0 0 0 0 0 0 0 0 0 0 0 127 0" result="hardAlpha"/>
<feOffset dx="-8" dy="-1"/>
<feGaussianBlur stdDeviation="10"/>
<feComposite in2="hardAlpha" operator="arithmetic" k2="-1" k3="1"/>
<feColorMatrix type="matrix" values="0 0 0 0 0.92549 0 0 0 0 0.733333 0 0 0 0 0.333333 0 0 0 1 0"/>
<feBlend mode="normal" in2="effect1_innerShadow_1234_2292" result="effect2_innerShadow_1234_2292"/>
</filter>
<filter id="filter12_di_1234_2292" x="58.2544" y="10.635" width="37.1338" height="39.1338" filterUnits="userSpaceOnUse" color-interpolation-filters="sRGB">
<feFlood flood-opacity="0" result="BackgroundImageFix"/>
<feColorMatrix in="SourceAlpha" type="matrix" values="0 0 0 0 0 0 0 0 0 0 0 0 0 0 0 0 0 0 127 0" result="hardAlpha"/>
<feOffset dx="-2" dy="4"/>
<feGaussianBlur stdDeviation="5"/>
<feComposite in2="hardAlpha" operator="out"/>
<feColorMatrix type="matrix" values="0 0 0 0 0.803922 0 0 0 0 0.462745 0 0 0 0 0.054902 0 0 0 1 0"/>
<feBlend mode="normal" in2="BackgroundImageFix" result="effect1_dropShadow_1234_2292"/>
<feBlend mode="normal" in="SourceGraphic" in2="effect1_dropShadow_1234_2292" result="shape"/>
<feColorMatrix in="SourceAlpha" type="matrix" values="0 0 0 0 0 0 0 0 0 0 0 0 0 0 0 0 0 0 127 0" result="hardAlpha"/>
<feOffset dx="20" dy="-20"/>
<feGaussianBlur stdDeviation="10"/>
<feComposite in2="hardAlpha" operator="arithmetic" k2="-1" k3="1"/>
<feColorMatrix type="matrix" values="0 0 0 0 0.807843 0 0 0 0 0.415686 0 0 0 0 0.00784314 0 0 0 1 0"/>
<feBlend mode="normal" in2="shape" result="effect2_innerShadow_1234_2292"/>
</filter>
<filter id="filter13_di_1234_2292" x="63.3887" y="10.0771" width="33.7856" height="35.7856" filterUnits="userSpaceOnUse" color-interpolation-filters="sRGB">
<feFlood flood-opacity="0" result="BackgroundImageFix"/>
<feColorMatrix in="SourceAlpha" type="matrix" values="0 0 0 0 0 0 0 0 0 0 0 0 0 0 0 0 0 0 127 0" result="hardAlpha"/>
<feOffset dx="-2" dy="4"/>
<feGaussianBlur stdDeviation="5"/>
<feComposite in2="hardAlpha" operator="out"/>
<feColorMatrix type="matrix" values="0 0 0 0 0.803922 0 0 0 0 0.462745 0 0 0 0 0.054902 0 0 0 1 0"/>
<feBlend mode="normal" in2="BackgroundImageFix" result="effect1_dropShadow_1234_2292"/>
<feBlend mode="normal" in="SourceGraphic" in2="effect1_dropShadow_1234_2292" result="shape"/>
<feColorMatrix in="SourceAlpha" type="matrix" values="0 0 0 0 0 0 0 0 0 0 0 0 0 0 0 0 0 0 127 0" result="hardAlpha"/>
<feOffset dx="20" dy="-20"/>
<feGaussianBlur stdDeviation="10"/>
<feComposite in2="hardAlpha" operator="arithmetic" k2="-1" k3="1"/>
<feColorMatrix type="matrix" values="0 0 0 0 0.807843 0 0 0 0 0.415686 0 0 0 0 0.00784314 0 0 0 1 0"/>
<feBlend mode="normal" in2="shape" result="effect2_innerShadow_1234_2292"/>
</filter>
<filter id="filter14_di_1234_2292" x="60.877" y="8.34717" width="33.7856" height="35.7856" filterUnits="userSpaceOnUse" color-interpolation-filters="sRGB">
<feFlood flood-opacity="0" result="BackgroundImageFix"/>
<feColorMatrix in="SourceAlpha" type="matrix" values="0 0 0 0 0 0 0 0 0 0 0 0 0 0 0 0 0 0 127 0" result="hardAlpha"/>
<feOffset dx="-2" dy="4"/>
<feGaussianBlur stdDeviation="5"/>
<feComposite in2="hardAlpha" operator="out"/>
<feColorMatrix type="matrix" values="0 0 0 0 0.803922 0 0 0 0 0.462745 0 0 0 0 0.054902 0 0 0 1 0"/>
<feBlend mode="normal" in2="BackgroundImageFix" result="effect1_dropShadow_1234_2292"/>
<feBlend mode="normal" in="SourceGraphic" in2="effect1_dropShadow_1234_2292" result="shape"/>
<feColorMatrix in="SourceAlpha" type="matrix" values="0 0 0 0 0 0 0 0 0 0 0 0 0 0 0 0 0 0 127 0" result="hardAlpha"/>
<feOffset dx="20" dy="-20"/>
<feGaussianBlur stdDeviation="10"/>
<feComposite in2="hardAlpha" operator="arithmetic" k2="-1" k3="1"/>
<feColorMatrix type="matrix" values="0 0 0 0 0.807843 0 0 0 0 0.415686 0 0 0 0 0.00784314 0 0 0 1 0"/>
<feBlend mode="normal" in2="shape" result="effect2_innerShadow_1234_2292"/>
</filter>
<filter id="filter15_di_1234_2292" x="57.8081" y="8.84937" width="33.7856" height="35.7856" filterUnits="userSpaceOnUse" color-interpolation-filters="sRGB">
<feFlood flood-opacity="0" result="BackgroundImageFix"/>
<feColorMatrix in="SourceAlpha" type="matrix" values="0 0 0 0 0 0 0 0 0 0 0 0 0 0 0 0 0 0 127 0" result="hardAlpha"/>
<feOffset dx="-2" dy="4"/>
<feGaussianBlur stdDeviation="5"/>
<feComposite in2="hardAlpha" operator="out"/>
<feColorMatrix type="matrix" values="0 0 0 0 0.803922 0 0 0 0 0.462745 0 0 0 0 0.054902 0 0 0 1 0"/>
<feBlend mode="normal" in2="BackgroundImageFix" result="effect1_dropShadow_1234_2292"/>
<feBlend mode="normal" in="SourceGraphic" in2="effect1_dropShadow_1234_2292" result="shape"/>
<feColorMatrix in="SourceAlpha" type="matrix" values="0 0 0 0 0 0 0 0 0 0 0 0 0 0 0 0 0 0 127 0" result="hardAlpha"/>
<feOffset dx="20" dy="-20"/>
<feGaussianBlur stdDeviation="10"/>
<feComposite in2="hardAlpha" operator="arithmetic" k2="-1" k3="1"/>
<feColorMatrix type="matrix" values="0 0 0 0 0.807843 0 0 0 0 0.415686 0 0 0 0 0.00784314 0 0 0 1 0"/>
<feBlend mode="normal" in2="shape" result="effect2_innerShadow_1234_2292"/>
</filter>
<filter id="filter16_ii_1234_2292" x="116.723" y="26.0779" width="17.5229" height="2.52515" filterUnits="userSpaceOnUse" color-interpolation-filters="sRGB">
<feFlood flood-opacity="0" result="BackgroundImageFix"/>
<feBlend mode="normal" in="SourceGraphic" in2="BackgroundImageFix" result="shape"/>
<feColorMatrix in="SourceAlpha" type="matrix" values="0 0 0 0 0 0 0 0 0 0 0 0 0 0 0 0 0 0 127 0" result="hardAlpha"/>
<feOffset dx="-8" dy="-1"/>
<feGaussianBlur stdDeviation="10"/>
<feComposite in2="hardAlpha" operator="arithmetic" k2="-1" k3="1"/>
<feColorMatrix type="matrix" values="0 0 0 0 0.92549 0 0 0 0 0.733333 0 0 0 0 0.333333 0 0 0 1 0"/>
<feBlend mode="normal" in2="shape" result="effect1_innerShadow_1234_2292"/>
<feColorMatrix in="SourceAlpha" type="matrix" values="0 0 0 0 0 0 0 0 0 0 0 0 0 0 0 0 0 0 127 0" result="hardAlpha"/>
<feOffset dx="8" dy="-1"/>
<feGaussianBlur stdDeviation="10"/>
<feComposite in2="hardAlpha" operator="arithmetic" k2="-1" k3="1"/>
<feColorMatrix type="matrix" values="0 0 0 0 0.92549 0 0 0 0 0.733333 0 0 0 0 0.333333 0 0 0 1 0"/>
<feBlend mode="normal" in2="effect1_innerShadow_1234_2292" result="effect2_innerShadow_1234_2292"/>
</filter>
<filter id="filter17_di_1234_2292" x="107.136" y="10.1328" width="37.1338" height="39.1338" filterUnits="userSpaceOnUse" color-interpolation-filters="sRGB">
<feFlood flood-opacity="0" result="BackgroundImageFix"/>
<feColorMatrix in="SourceAlpha" type="matrix" values="0 0 0 0 0 0 0 0 0 0 0 0 0 0 0 0 0 0 127 0" result="hardAlpha"/>
<feOffset dx="-2" dy="4"/>
<feGaussianBlur stdDeviation="5"/>
<feComposite in2="hardAlpha" operator="out"/>
<feColorMatrix type="matrix" values="0 0 0 0 0.803922 0 0 0 0 0.462745 0 0 0 0 0.054902 0 0 0 1 0"/>
<feBlend mode="normal" in2="BackgroundImageFix" result="effect1_dropShadow_1234_2292"/>
<feBlend mode="normal" in="SourceGraphic" in2="effect1_dropShadow_1234_2292" result="shape"/>
<feColorMatrix in="SourceAlpha" type="matrix" values="0 0 0 0 0 0 0 0 0 0 0 0 0 0 0 0 0 0 127 0" result="hardAlpha"/>
<feOffset dx="20" dy="-20"/>
<feGaussianBlur stdDeviation="10"/>
<feComposite in2="hardAlpha" operator="arithmetic" k2="-1" k3="1"/>
<feColorMatrix type="matrix" values="0 0 0 0 0.807843 0 0 0 0 0.415686 0 0 0 0 0.00784314 0 0 0 1 0"/>
<feBlend mode="normal" in2="shape" result="effect2_innerShadow_1234_2292"/>
</filter>
<filter id="filter18_di_1234_2292" x="105.351" y="9.57495" width="33.7856" height="35.7856" filterUnits="userSpaceOnUse" color-interpolation-filters="sRGB">
<feFlood flood-opacity="0" result="BackgroundImageFix"/>
<feColorMatrix in="SourceAlpha" type="matrix" values="0 0 0 0 0 0 0 0 0 0 0 0 0 0 0 0 0 0 127 0" result="hardAlpha"/>
<feOffset dx="-2" dy="4"/>
<feGaussianBlur stdDeviation="5"/>
<feComposite in2="hardAlpha" operator="out"/>
<feColorMatrix type="matrix" values="0 0 0 0 0.803922 0 0 0 0 0.462745 0 0 0 0 0.054902 0 0 0 1 0"/>
<feBlend mode="normal" in2="BackgroundImageFix" result="effect1_dropShadow_1234_2292"/>
<feBlend mode="normal" in="SourceGraphic" in2="effect1_dropShadow_1234_2292" result="shape"/>
<feColorMatrix in="SourceAlpha" type="matrix" values="0 0 0 0 0 0 0 0 0 0 0 0 0 0 0 0 0 0 127 0" result="hardAlpha"/>
<feOffset dx="20" dy="-20"/>
<feGaussianBlur stdDeviation="10"/>
<feComposite in2="hardAlpha" operator="arithmetic" k2="-1" k3="1"/>
<feColorMatrix type="matrix" values="0 0 0 0 0.807843 0 0 0 0 0.415686 0 0 0 0 0.00784314 0 0 0 1 0"/>
<feBlend mode="normal" in2="shape" result="effect2_innerShadow_1234_2292"/>
</filter>
<filter id="filter19_di_1234_2292" x="107.862" y="7.84497" width="33.7856" height="35.7856" filterUnits="userSpaceOnUse" color-interpolation-filters="sRGB">
<feFlood flood-opacity="0" result="BackgroundImageFix"/>
<feColorMatrix in="SourceAlpha" type="matrix" values="0 0 0 0 0 0 0 0 0 0 0 0 0 0 0 0 0 0 127 0" result="hardAlpha"/>
<feOffset dx="-2" dy="4"/>
<feGaussianBlur stdDeviation="5"/>
<feComposite in2="hardAlpha" operator="out"/>
<feColorMatrix type="matrix" values="0 0 0 0 0.803922 0 0 0 0 0.462745 0 0 0 0 0.054902 0 0 0 1 0"/>
<feBlend mode="normal" in2="BackgroundImageFix" result="effect1_dropShadow_1234_2292"/>
<feBlend mode="normal" in="SourceGraphic" in2="effect1_dropShadow_1234_2292" result="shape"/>
<feColorMatrix in="SourceAlpha" type="matrix" values="0 0 0 0 0 0 0 0 0 0 0 0 0 0 0 0 0 0 127 0" result="hardAlpha"/>
<feOffset dx="20" dy="-20"/>
<feGaussianBlur stdDeviation="10"/>
<feComposite in2="hardAlpha" operator="arithmetic" k2="-1" k3="1"/>
<feColorMatrix type="matrix" values="0 0 0 0 0.807843 0 0 0 0 0.415686 0 0 0 0 0.00784314 0 0 0 1 0"/>
<feBlend mode="normal" in2="shape" result="effect2_innerShadow_1234_2292"/>
</filter>
<filter id="filter20_di_1234_2292" x="110.932" y="8.34717" width="33.7856" height="35.7856" filterUnits="userSpaceOnUse" color-interpolation-filters="sRGB">
<feFlood flood-opacity="0" result="BackgroundImageFix"/>
<feColorMatrix in="SourceAlpha" type="matrix" values="0 0 0 0 0 0 0 0 0 0 0 0 0 0 0 0 0 0 127 0" result="hardAlpha"/>
<feOffset dx="-2" dy="4"/>
<feGaussianBlur stdDeviation="5"/>
<feComposite in2="hardAlpha" operator="out"/>
<feColorMatrix type="matrix" values="0 0 0 0 0.803922 0 0 0 0 0.462745 0 0 0 0 0.054902 0 0 0 1 0"/>
<feBlend mode="normal" in2="BackgroundImageFix" result="effect1_dropShadow_1234_2292"/>
<feBlend mode="normal" in="SourceGraphic" in2="effect1_dropShadow_1234_2292" result="shape"/>
<feColorMatrix in="SourceAlpha" type="matrix" values="0 0 0 0 0 0 0 0 0 0 0 0 0 0 0 0 0 0 127 0" result="hardAlpha"/>
<feOffset dx="20" dy="-20"/>
<feGaussianBlur stdDeviation="10"/>
<feComposite in2="hardAlpha" operator="arithmetic" k2="-1" k3="1"/>
<feColorMatrix type="matrix" values="0 0 0 0 0.807843 0 0 0 0 0.415686 0 0 0 0 0.00784314 0 0 0 1 0"/>
<feBlend mode="normal" in2="shape" result="effect2_innerShadow_1234_2292"/>
</filter>
</defs>
</svg>
