<svg width="199" height="39" viewBox="0 0 199 39" fill="none" xmlns="http://www.w3.org/2000/svg">
<rect width="199" height="39" rx="19.5" fill="#292625"/>
<g clip-path="url(#clip0_245_2988)">
<path d="M22.7824 10.5C24.2806 10.5 25.7815 10.5 27.2797 10.5C27.4887 10.5109 27.6977 10.5272 27.9094 10.5326C28.6531 10.5462 29.3967 10.576 30.1241 10.7471C31.4622 11.0648 32.537 11.7491 33.2155 12.9764C33.6633 13.7856 33.875 14.6653 33.9185 15.5804C34.0297 18.0052 34.0189 20.43 33.9429 22.8548C33.9239 23.4359 33.8669 24.0278 33.7393 24.5953C33.3186 26.4553 32.195 27.6827 30.3413 28.1986C29.5976 28.405 28.8295 28.4566 28.0614 28.4647C26.2809 28.4837 24.5005 28.4946 22.72 28.5C21.8244 28.5 20.9287 28.4674 20.0466 28.2882C18.619 28.0004 17.4954 27.2672 16.7625 25.9856C16.3066 25.1846 16.1437 24.2994 16.0677 23.3952C16.0433 23.0938 16.0216 22.7896 15.9972 22.4882C15.9972 20.4599 15.9972 18.4342 15.9972 16.4059C16.008 16.319 16.0162 16.2348 16.027 16.1479C16.0867 15.613 16.1166 15.0726 16.2143 14.5459C16.5888 12.5256 18.0273 11.0974 20.0385 10.7037C20.8011 10.557 21.5747 10.5434 22.3455 10.5272C22.492 10.5244 22.6359 10.5081 22.7824 10.5ZM32.3578 17.2503C32.3253 16.4547 32.309 15.6537 32.1868 14.8717C31.9887 13.5928 31.2423 12.7347 29.9694 12.4062C29.4619 12.2758 28.9353 12.1808 28.4142 12.1618C27.1739 12.1129 22.9019 12.1075 22.0035 12.1211C21.3413 12.1319 20.6817 12.1618 20.0358 12.3301C18.9908 12.6071 18.2689 13.2262 17.9242 14.2689C17.6636 15.0591 17.5985 15.8764 17.5903 16.6964C17.5741 18.6053 17.5713 20.5169 17.5903 22.4258C17.5958 22.996 17.6528 23.5771 17.7668 24.1337C18.0517 25.5294 18.8931 26.4146 20.3153 26.6671C20.907 26.773 21.5122 26.8301 22.1121 26.8409C23.8111 26.8708 25.5101 26.8817 27.2064 26.8626C27.9881 26.8545 28.7779 26.8083 29.5514 26.697C30.9302 26.4961 31.853 25.6326 32.1407 24.2994C32.2547 23.7699 32.3198 23.2214 32.3334 22.681C32.3605 21.5406 32.385 17.9183 32.3605 17.2503H32.3578Z" fill="#F2F1F0"/>
<path d="M24.9946 14.8799C27.5431 14.8745 29.6004 16.9273 29.614 19.4851C29.6276 22.0348 27.554 24.1121 24.9973 24.1121C22.446 24.1121 20.3887 22.0511 20.386 19.4987C20.386 16.9463 22.4379 14.8853 24.9919 14.8799H24.9946ZM27.9937 19.5014C27.9937 17.8396 26.6692 16.5064 25.0109 16.501C23.3525 16.4955 22.0118 17.826 22.0063 19.4797C22.0009 21.1469 23.3362 22.4883 25 22.4883C26.6583 22.4883 27.9909 21.1578 27.9937 19.4987V19.5014Z" fill="#F2F1F0"/>
<path d="M30.8733 14.6897C30.8761 15.2871 30.4065 15.7677 29.8148 15.7731C29.215 15.7786 28.7238 15.2979 28.7211 14.7033C28.7211 14.1005 29.1987 13.6199 29.8013 13.6226C30.3984 13.6226 30.8706 14.095 30.8733 14.6924V14.6897Z" fill="#F2F1F0"/>
</g>
<path d="M52.6406 23.2051H50.9707V11.7617H52.6406V23.2051ZM53.1152 27.1602H42.3398V22.0449H44.0273V25.8066H53.1152V27.1602ZM44.0977 12.8164C44.8828 12.8164 45.5918 12.9834 46.2246 13.3174C46.8633 13.6514 47.3643 14.1143 47.7275 14.7061C48.0967 15.2979 48.2812 15.9688 48.2812 16.7188C48.2812 17.4805 48.0967 18.1602 47.7275 18.7578C47.3643 19.3496 46.8633 19.8125 46.2246 20.1465C45.5918 20.4746 44.8828 20.6387 44.0977 20.6387C43.3125 20.6387 42.6006 20.4746 41.9619 20.1465C41.3232 19.8125 40.8193 19.3467 40.4502 18.749C40.0811 18.1514 39.8965 17.4746 39.8965 16.7188C39.8965 15.9688 40.0811 15.2979 40.4502 14.7061C40.8193 14.1143 41.3232 13.6514 41.9619 13.3174C42.6006 12.9834 43.3125 12.8164 44.0977 12.8164ZM44.0977 14.2754C43.6113 14.2754 43.1719 14.3809 42.7793 14.5918C42.3926 14.7969 42.0879 15.084 41.8652 15.4531C41.6426 15.8223 41.5312 16.2441 41.5312 16.7188C41.5312 17.2051 41.6396 17.6357 41.8564 18.0107C42.0791 18.3799 42.3838 18.667 42.7705 18.8721C43.1631 19.0771 43.6055 19.1797 44.0977 19.1797C44.5781 19.1797 45.0117 19.0771 45.3984 18.8721C45.7852 18.667 46.0898 18.377 46.3125 18.002C46.5352 17.627 46.6465 17.1992 46.6465 16.7188C46.6465 16.25 46.5352 15.8311 46.3125 15.4619C46.0898 15.0869 45.7822 14.7969 45.3896 14.5918C45.0029 14.3809 44.5723 14.2754 44.0977 14.2754ZM62.5948 13.9766C62.5948 14.8086 62.8614 15.6172 63.3946 16.4023C63.9336 17.1875 64.6455 17.8584 65.5303 18.415C66.4151 18.9658 67.3584 19.332 68.3604 19.5137L67.587 20.9023C66.7491 20.7207 65.9463 20.4219 65.1788 20.0059C64.4112 19.5898 63.7256 19.083 63.1221 18.4854C62.5245 17.8818 62.0586 17.2168 61.7246 16.4902C61.3848 17.2109 60.9161 17.873 60.3184 18.4766C59.7266 19.0742 59.0469 19.5811 58.2793 19.9971C57.5118 20.4131 56.7061 20.7148 55.8623 20.9023L55.1241 19.5137C56.1143 19.3262 57.0489 18.957 57.9278 18.4062C58.8067 17.8496 59.5098 17.1816 60.0371 16.4023C60.5704 15.6172 60.837 14.8086 60.837 13.9766V12.7812H62.5948V13.9766ZM69.0108 25.4199H54.5967V24.0312H69.0108V25.4199ZM77.6993 14.5039H71.9688V17.5449H77.3829V18.8809H71.9688V22.4141C73.3341 22.4082 74.5411 22.3701 75.5899 22.2998C76.6388 22.2295 77.7169 22.1035 78.8243 21.9219L78.9825 23.2754C77.8341 23.4688 76.6973 23.6006 75.5723 23.6709C74.4473 23.7354 73.1055 23.7676 71.547 23.7676H70.2813V13.1328H77.6993V14.5039ZM81.8829 17.9492H84.4141V19.3555H81.8829V27.4941H80.213V11.7441H81.8829V17.9492ZM97.1105 15.0312C97.1105 15.9512 97.0988 16.748 97.0753 17.4219C97.0577 18.0957 97.0079 18.875 96.9259 19.7598C96.8439 20.6387 96.712 21.5996 96.5304 22.6426L94.8253 22.4844C95.0187 21.5117 95.1622 20.5918 95.256 19.7246C95.3497 18.8574 95.4054 18.0869 95.423 17.4131C95.4464 16.7334 95.4581 15.9395 95.4581 15.0312V14.7148H86.1769V13.3438H97.1105V15.0312ZM98.9913 25.2617H84.63V23.873H98.9913V25.2617ZM113.076 21.1133H111.494V17.0176H109.561V20.9375H107.996V12.043H109.561V15.6465H111.494V11.7617H113.076V21.1133ZM113.076 27.3008H102.547V21.8164H113.076V27.3008ZM104.217 25.9473H111.442V23.1523H104.217V25.9473ZM106.291 17.1758H101.967V19.1445C103.016 19.1328 103.933 19.0977 104.718 19.0391C105.509 18.9746 106.315 18.8633 107.135 18.7051L107.311 20.041C106.385 20.2109 105.486 20.3252 104.612 20.3838C103.745 20.4365 102.67 20.4629 101.387 20.4629H100.35V15.8926H104.692V14.082H100.315V12.7461H106.291V17.1758Z" fill="#F2F1F0"/>
<path d="M124.934 22.3516C123.809 22.3516 122.953 21.4492 122.953 19.9141C122.953 18.3789 123.832 17.4883 124.934 17.4883C125.742 17.4883 126.105 17.9922 126.246 18.2852H126.305V17.582H127.324V20.8633C127.336 21.2969 127.512 21.4961 127.863 21.4961C128.52 21.4961 128.965 20.7344 128.965 19.5977C128.977 17.4766 127.453 16.082 125.273 16.082C123.012 16.0938 121.57 17.7695 121.57 19.9141C121.57 22.2461 122.824 23.7812 125.227 23.7578C126.059 23.7461 126.633 23.6875 127.324 23.5V24.4375C126.703 24.6133 126 24.7188 125.227 24.7188C122.32 24.7188 120.586 22.8672 120.586 19.9141C120.586 17.1367 122.531 15.1211 125.273 15.1211C128.051 15.1211 129.949 17.0195 129.949 19.5625C129.949 21.3672 129.035 22.4102 127.781 22.3984C127.025 22.3984 126.451 22.0117 126.363 21.4727H126.305C126.152 21.7656 125.789 22.3516 124.934 22.3516ZM125.191 21.3906C125.93 21.3906 126.316 20.793 126.328 19.9023C126.316 19.0234 125.941 18.4492 125.191 18.4492C124.453 18.4492 124.055 19.0703 124.055 19.9023C124.055 20.7461 124.465 21.3906 125.191 21.3906ZM132.191 15.0156V23.5H130.937V15.0156H132.191ZM133.354 23.5V17.1367H134.608V23.5H133.354ZM133.987 16.1523C133.553 16.1523 133.19 15.8242 133.19 15.4141C133.19 15.0039 133.553 14.6758 133.987 14.6758C134.409 14.6758 134.772 15.0039 134.772 15.4141C134.772 15.8242 134.409 16.1523 133.987 16.1523ZM135.772 23.5V15.0156H137.025V19.8203H137.131L139.65 17.1367H141.15L138.584 19.8672L141.326 23.5H139.791L137.635 20.6406L137.025 21.2383V23.5H135.772ZM144.247 23.6289C142.372 23.6289 141.224 22.3398 141.224 20.3594C141.224 18.4023 142.396 17.0547 144.165 17.0547C145.619 17.0547 146.99 17.957 146.99 20.2539V20.6992H142.466C142.501 21.9062 143.21 22.5977 144.259 22.5977C144.974 22.5977 145.431 22.293 145.642 21.9062H146.908C146.626 22.9375 145.642 23.6289 144.247 23.6289ZM142.478 19.7617H145.759C145.759 18.7891 145.138 18.0859 144.177 18.0859C143.175 18.0859 142.525 18.8594 142.478 19.7617ZM149.126 15.0156V23.5H147.872V15.0156H149.126ZM150.289 23.5V17.1367H151.543V23.5H150.289ZM150.922 16.1523C150.488 16.1523 150.125 15.8242 150.125 15.4141C150.125 15.0039 150.488 14.6758 150.922 14.6758C151.344 14.6758 151.707 15.0039 151.707 15.4141C151.707 15.8242 151.344 16.1523 150.922 16.1523ZM155.402 23.6289C153.597 23.6289 152.425 22.3164 152.425 20.3477C152.425 18.3672 153.597 17.0547 155.402 17.0547C157.195 17.0547 158.367 18.3672 158.367 20.3477C158.367 22.3164 157.195 23.6289 155.402 23.6289ZM155.402 22.5859C156.55 22.5859 157.101 21.5664 157.101 20.3477C157.101 19.1289 156.55 18.0859 155.402 18.0859C154.23 18.0859 153.679 19.1289 153.679 20.3477C153.679 21.5664 154.23 22.5859 155.402 22.5859ZM160.491 19.7266V23.5H159.237V17.1367H160.444V18.1797H160.515C160.819 17.5 161.44 17.0547 162.39 17.0547C163.702 17.0547 164.557 17.875 164.557 19.457V23.5H163.315V19.6094C163.315 18.6836 162.811 18.1328 161.968 18.1328C161.112 18.1328 160.491 18.707 160.491 19.7266ZM170.268 23.5V24.5547H164.877V23.5H170.268ZM172.955 23.6289C171.42 23.6289 170.295 22.3867 170.295 20.3359C170.295 18.2617 171.431 17.0547 172.966 17.0547C174.15 17.0547 174.584 17.7695 174.806 18.168H174.865V15.0156H176.119V23.5H174.9V22.5039H174.806C174.572 22.9258 174.115 23.6289 172.955 23.6289ZM173.236 22.5625C174.302 22.5625 174.9 21.6484 174.9 20.3125C174.9 18.9883 174.314 18.1211 173.236 18.1211C172.123 18.1211 171.572 19.0586 171.572 20.3125C171.572 21.5898 172.146 22.5625 173.236 22.5625ZM180.962 18.8711C180.845 18.3672 180.446 18.0391 179.755 18.0391C179.04 18.0391 178.524 18.4141 178.536 18.8945C178.524 19.2695 178.829 19.5391 179.532 19.7031L180.54 19.9375C181.712 20.1953 182.274 20.7578 182.286 21.6602C182.274 22.8086 181.313 23.6289 179.685 23.6289C178.161 23.6289 177.247 22.9492 177.095 21.7656H178.372C178.478 22.3398 178.923 22.6211 179.673 22.6211C180.481 22.6211 180.997 22.293 181.009 21.7539C180.997 21.3438 180.692 21.0742 180.024 20.9219L179.028 20.7109C177.88 20.4531 177.282 19.8438 177.282 18.9648C177.282 17.8281 178.267 17.0547 179.743 17.0547C181.161 17.0547 182.04 17.7812 182.169 18.8711H180.962Z" fill="#78726E"/>
<defs>
<clipPath id="clip0_245_2988">
<rect width="18" height="18" fill="white" transform="translate(16 10.5)"/>
</clipPath>
</defs>
</svg>
