<svg width="24" height="24" viewBox="0 0 24 24" fill="none" xmlns="http://www.w3.org/2000/svg">
<mask id="mask0_31_465" style="mask-type:alpha" maskUnits="userSpaceOnUse" x="0" y="0" width="24" height="24">
<rect width="24" height="24" fill="#D9D9D9"/>
</mask>
<g mask="url(#mask0_31_465)">
<path d="M6.25 4.5C6.66421 4.5 7 4.83579 7 5.25L7 13.25C7 13.8023 7.44772 14.25 8 14.25L16.627 14.25L13.4576 11.0806C13.166 10.789 13.1643 10.3168 13.4538 10.0231C13.7463 9.7264 14.2244 9.72467 14.519 10.0192L18.7929 14.2929C19.1834 14.6834 19.1834 15.3166 18.7929 15.7071L14.5341 19.9659C14.2391 20.2609 13.7609 20.2609 13.4659 19.9659C13.1705 19.6705 13.171 19.1915 13.4671 18.8967L16.627 15.75L6.5 15.75C5.94771 15.75 5.5 15.3023 5.5 14.75L5.5 5.25C5.5 4.83579 5.83579 4.5 6.25 4.5Z" fill="white"/>
</g>
</svg>
