<svg width="20" height="20" viewBox="0 0 20 20" fill="none" xmlns="http://www.w3.org/2000/svg">
<path d="M12.9813 15.9185C13.5635 15.6936 14.1335 15.504 14.676 15.2551C15.0853 15.0673 15.4605 14.8092 15.8452 14.5732C15.9983 14.4798 16.0768 14.3355 16.0409 14.1513C15.986 13.8719 15.6741 13.7665 15.4152 13.9348C15.159 14.1014 14.9104 14.2818 14.6392 14.4233C13.1968 15.1746 11.642 15.4614 10.022 15.4642C8.40948 15.4679 6.86034 15.1866 5.41799 14.453C5.14578 14.3142 4.89058 14.1421 4.63727 13.9728C4.39342 13.809 4.16941 13.8109 4.02669 14.0005C3.88491 14.1874 3.935 14.4132 4.16846 14.5853C4.9558 15.1672 5.84805 15.5364 6.78567 15.8111C6.85845 15.8324 6.93217 15.8537 7.02007 15.8787C7.00022 15.9222 6.99077 15.961 6.96903 15.9906C6.76865 16.2636 6.56544 16.5337 6.36506 16.8057C6.26204 16.9464 6.1231 17.0176 5.95013 16.9973C4.47281 16.8289 3.08812 16.4218 1.90949 15.4873C1.80646 15.4059 1.711 15.3143 1.61553 15.2236C1.18264 14.8166 0.962415 14.3641 1.00589 13.7331C1.1817 11.1833 1.78378 8.74816 2.83671 6.40925C3.2299 5.53586 3.9265 5.04643 4.77432 4.69578C5.63633 4.33958 6.53425 4.1092 7.46525 4.00928C7.8868 3.96395 8.0248 4.07682 8.10419 4.52277C7.75258 4.60326 7.39814 4.67635 7.04748 4.76702C6.25164 4.97149 5.49077 5.26385 4.79039 5.69037C4.68075 5.75699 4.57584 5.86986 4.52669 5.98551C4.46714 6.12522 4.52952 6.26955 4.66374 6.36392C4.8178 6.47217 4.96809 6.44811 5.13633 6.37132C5.69304 6.11689 6.23841 5.82083 6.82064 5.63949C9.37357 4.84381 11.8811 4.98352 14.3235 6.07988C14.5078 6.16222 14.6808 6.2677 14.8584 6.36484C15.0976 6.49437 15.3254 6.44996 15.4416 6.24919C15.5541 6.05398 15.4889 5.84858 15.2573 5.71073C14.2885 5.1334 13.2327 4.7846 12.124 4.57828C12.0494 4.5644 11.9756 4.54775 11.9019 4.53295C11.953 4.09347 12.1136 3.96117 12.5494 4.01113C13.5494 4.12678 14.5068 4.38491 15.4341 4.77905C16.3065 5.15005 16.8859 5.75976 17.2554 6.61002C18.2904 8.99241 18.9 11.4646 19.0002 14.056C19.0125 14.3697 18.9048 14.6121 18.7204 14.8471C18.2034 15.5049 17.5286 15.9601 16.7649 16.295C15.9227 16.6642 15.0409 16.8973 14.1212 16.9926C13.9038 17.0148 13.7422 16.9528 13.6155 16.7761C13.4076 16.4856 13.1911 16.1997 12.9823 15.9185H12.9813ZM8.86979 11.236C8.78378 10.9714 8.73463 10.6892 8.60608 10.4468C8.20627 9.69187 7.29512 9.50498 6.65618 10.0249C5.93879 10.6078 5.89814 11.7958 6.57395 12.4249C7.12499 12.9384 7.91232 12.906 8.4161 12.3472C8.69776 12.0354 8.81686 11.6635 8.86884 11.237L8.86979 11.236ZM11.1751 11.3591C11.1997 11.4664 11.2223 11.6894 11.3036 11.8883C11.5097 12.3925 11.8717 12.7367 12.452 12.7783C13.0456 12.8209 13.4482 12.5202 13.7176 12.0308C14.0418 11.4423 13.952 10.6948 13.5106 10.185C13.0333 9.63358 12.2535 9.57622 11.7025 10.0582C11.3414 10.3737 11.1911 10.7827 11.176 11.3591H11.1751Z" fill="#78726E"/>
</svg>
