<svg xmlns="http://www.w3.org/2000/svg" width="40" height="90" fill="none">
  <path fill="#C93D6C" fill-rule="evenodd" d="M35.7996 88.7764c-.8986-.655-13.5626-13.5129-20.5852-15.1132-2.5809-.5861-3.5042-2.1812-1.5949-2.7082 1.4196-.3812 6.1216-4.2069 6.903-4.7933-.0237-.0409-9.436-8.7452-9.3409-19.6797.0069-.4131-.6756-1.3561-1.60189-2.2951-7.5355-7.3038-10.69444-22.2543-7.93718-37.42143.25826-1.3485.50215-3.28862.56807-4.30821.28739-4.0375 6.386-3.51394 4.94145 5.08922C5.19033 19.3651 5.69613 27.4177 8.91979 35.1595c1.86441 4.5435 2.03251 4.6921 2.64771 2.4018 2.7817-10.3548 18.1519-9.6351 22.7707.1391 3.498 7.3656-3.3227 15.4654-14.6419 12.4402-1.6494-.4408-2.9927-.7307-3.0187-.6339-.5246 2.2108 3.6131 12.0985 6.0495 14.5129.4631.4695 5.6733-2.6672 5.8015-3.5318.2283-1.4948 3.9244-1.0602 4.7981.5908.2044.4004.7857 3.0105 1.2504 5.7969 1.0171 6.1494 2.2763 9.978 4.0679 15.954 1.4884 5.1691 1.4707 9.1058-2.8454 5.9469ZM16.4819 41.8481c-.285 3.8998 3.2526 6.9889 7.099 6.2191 5.3133-1.0693 6.7159-5.2582 5.9828-8.9807-1.9419-10.0614-12.3978-6.4943-13.0818 2.7616Z" clip-rule="evenodd"/>
</svg>