<svg xmlns="http://www.w3.org/2000/svg" width="402" height="70" fill="none">
  <path fill="#fff" d="M0 0h402v70H0z"/>
  <path fill="#AF2F5A" d="M2.27557 48.5V22.3182H12.6051c1.9773 0 3.6648.3537 5.0625 1.0611 1.4063.6988 2.4759 1.6917 3.2088 2.9787.7415 1.2784 1.1122 2.7826 1.1122 4.5127 0 1.7387-.375 3.2344-1.125 4.4873-.75 1.2443-1.8366 2.1988-3.2599 2.8636-1.4148.6648-3.1278.9972-5.1392.9972H5.5483v-4.4489h6.0213c1.0568 0 1.9347-.1449 2.6335-.4347.6989-.2897 1.2188-.7244 1.5597-1.304.3494-.5795.5241-1.2997.5241-2.1605 0-.8693-.1747-1.6022-.5241-2.1988-.3409-.5966-.8651-1.0483-1.5725-1.3551-.6988-.3154-1.5809-.473-2.6463-.473H7.81108V48.5H2.27557ZM16.4148 36.5852 22.9219 48.5h-6.1108l-6.3665-11.9148h5.9702Zm32.8254-1.1761c0 2.8551-.5412 5.2841-1.6236 7.2869-1.0738 2.0029-2.5397 3.5327-4.3977 4.5895-1.8494 1.0483-3.929 1.5725-6.2386 1.5725-2.3267 0-4.4148-.5285-6.2642-1.5853-1.8495-1.0568-3.3111-2.5866-4.385-4.5895-1.0738-2.0028-1.6108-4.4275-1.6108-7.2741 0-2.8551.537-5.2841 1.6108-7.2869 1.0739-2.0029 2.5355-3.5285 4.385-4.5767 1.8494-1.0569 3.9375-1.5853 6.2642-1.5853 2.3096 0 4.3892.5284 6.2386 1.5853 1.858 1.0482 3.3239 2.5738 4.3977 4.5767 1.0824 2.0028 1.6236 4.4318 1.6236 7.2869Zm-5.6122 0c0-1.8494-.277-3.4091-.831-4.679-.5454-1.2699-1.3167-2.2329-2.3139-2.8892-.9971-.6562-2.1647-.9844-3.5028-.9844-1.3381 0-2.5057.3282-3.5029.9844-.9971.6563-1.7727 1.6193-2.3267 2.8892-.5454 1.2699-.8181 2.8296-.8181 4.679 0 1.8494.2727 3.4091.8181 4.679.554 1.2699 1.3296 2.2329 2.3267 2.8892.9972.6562 2.1648.9843 3.5029.9843 1.3381 0 2.5057-.3281 3.5028-.9843.9972-.6563 1.7685-1.6193 2.3139-2.8892.554-1.2699.831-2.8296.831-4.679ZM57.5298 48.5l-7.4915-26.1818h6.0469l4.3338 18.1917h.2174l4.7812-18.1917h5.1776l4.7684 18.2301h.2301l4.3338-18.2301h6.0469L78.4829 48.5h-5.3948l-4.9858-17.1179h-.2046L62.9247 48.5h-5.3949Zm30.6873 0V22.3182h5.5355v21.6179h11.2244V48.5H88.2171Zm26.3209-21.6179v-4.5639h21.503v4.5639h-8.016V48.5h-5.472V26.8821h-8.015Zm47.188 8.527c0 2.8551-.541 5.2841-1.623 7.2869-1.074 2.0029-2.54 3.5327-4.398 4.5895-1.85 1.0483-3.929 1.5725-6.239 1.5725-2.326 0-4.415-.5285-6.264-1.5853-1.849-1.0568-3.311-2.5866-4.385-4.5895-1.074-2.0028-1.611-4.4275-1.611-7.2741 0-2.8551.537-5.2841 1.611-7.2869 1.074-2.0029 2.536-3.5285 4.385-4.5767 1.849-1.0569 3.938-1.5853 6.264-1.5853 2.31 0 4.389.5284 6.239 1.5853 1.858 1.0482 3.324 2.5738 4.398 4.5767 1.082 2.0028 1.623 4.4318 1.623 7.2869Zm-5.612 0c0-1.8494-.277-3.4091-.831-4.679-.545-1.2699-1.317-2.2329-2.314-2.8892-.997-.6562-2.165-.9844-3.503-.9844s-2.505.3282-3.503.9844c-.997.6563-1.772 1.6193-2.326 2.8892-.546 1.2699-.819 2.8296-.819 4.679 0 1.8494.273 3.4091.819 4.679.554 1.2699 1.329 2.2329 2.326 2.8892.998.6562 2.165.9843 3.503.9843s2.506-.3281 3.503-.9843c.997-.6563 1.769-1.6193 2.314-2.8892.554-1.2699.831-2.8296.831-4.679Zm28.737-2.1605v4.321H172.91v-4.321h11.941ZM202.379 48.5l-7.491-26.1818h6.047l4.333 18.1917h.218l4.781-18.1917h5.178l4.768 18.2301h.23l4.334-18.2301h6.047L223.332 48.5h-5.395l-4.985-17.1179h-.205L207.774 48.5h-5.395Zm53.271-13.0909c0 2.8551-.542 5.2841-1.624 7.2869-1.074 2.0029-2.54 3.5327-4.398 4.5895-1.849 1.0483-3.929 1.5725-6.238 1.5725-2.327 0-4.415-.5285-6.265-1.5853-1.849-1.0568-3.311-2.5866-4.384-4.5895-1.074-2.0028-1.611-4.4275-1.611-7.2741 0-2.8551.537-5.2841 1.611-7.2869 1.073-2.0029 2.535-3.5285 4.384-4.5767 1.85-1.0569 3.938-1.5853 6.265-1.5853 2.309 0 4.389.5284 6.238 1.5853 1.858 1.0482 3.324 2.5738 4.398 4.5767 1.082 2.0028 1.624 4.4318 1.624 7.2869Zm-5.613 0c0-1.8494-.277-3.4091-.831-4.679-.545-1.2699-1.316-2.2329-2.313-2.8892-.998-.6562-2.165-.9844-3.503-.9844s-2.506.3282-3.503.9844c-.997.6563-1.773 1.6193-2.327 2.8892-.545 1.2699-.818 2.8296-.818 4.679 0 1.8494.273 3.4091.818 4.679.554 1.2699 1.33 2.2329 2.327 2.8892.997.6562 2.165.9843 3.503.9843s2.505-.3281 3.503-.9843c.997-.6563 1.768-1.6193 2.313-2.8892.554-1.2699.831-2.8296.831-4.679ZM259.03 48.5V22.3182h10.33c1.977 0 3.664.3537 5.062 1.0611 1.406.6988 2.476 1.6917 3.209 2.9787.741 1.2784 1.112 2.7826 1.112 4.5127 0 1.7387-.375 3.2344-1.125 4.4873-.75 1.2443-1.836 2.1988-3.26 2.8636-1.415.6648-3.128.9972-5.139.9972h-6.916v-4.4489h6.021c1.057 0 1.935-.1449 2.634-.4347.699-.2897 1.218-.7244 1.559-1.304.35-.5795.524-1.2997.524-2.1605 0-.8693-.174-1.6022-.524-2.1988-.341-.5966-.865-1.0483-1.572-1.3551-.699-.3154-1.581-.473-2.646-.473h-3.733V48.5h-5.536Zm14.139-11.9148L279.676 48.5h-6.11l-6.367-11.9148h5.97ZM281.935 48.5V22.3182h5.536v21.6179h11.224V48.5h-16.76Zm28.987 0h-9.281V22.3182h9.358c2.633 0 4.9.5241 6.801 1.5724 1.901 1.0398 3.362 2.5355 4.385 4.4872 1.031 1.9517 1.547 4.287 1.547 7.0057 0 2.7273-.516 5.071-1.547 7.0313-1.023 1.9602-2.493 3.4645-4.411 4.5128-1.909 1.0483-4.193 1.5724-6.852 1.5724Zm-3.746-4.7429h3.516c1.636 0 3.013-.2898 4.129-.8693 1.125-.5881 1.969-1.4958 2.532-2.723.571-1.2358.856-2.8296.856-4.7813 0-1.9346-.285-3.5156-.856-4.7429-.563-1.2272-1.402-2.1307-2.519-2.7102-1.116-.5795-2.493-.8693-4.129-.8693h-3.529v16.696Zm43.196 4.5384-2.966-2.9404 7.786-7.7855h-18.243v-4.321h18.243l-7.786-7.7727 2.966-2.9532 12.886 12.8864-12.886 12.8864Zm42.953-17.5143c-.179-.6221-.431-1.1718-.754-1.6491-.324-.4858-.721-.8949-1.189-1.2273-.461-.3409-.989-.6008-1.586-.7798-.588-.179-1.24-.2685-1.956-.2685-1.338 0-2.514.3324-3.528.9972-1.006.6648-1.79 1.6321-2.352 2.902-.563 1.2613-.844 2.804-.844 4.6278 0 1.8239.277 3.375.831 4.6534.554 1.2784 1.338 2.2543 2.352 2.9276 1.014.6648 2.212.9971 3.593.9971 1.252 0 2.322-.2215 3.208-.6647.895-.4517 1.577-1.0867 2.046-1.9049.477-.8181.716-1.7855.716-2.9019l1.125.1661h-6.75v-4.1676h10.956v3.2983c0 2.3012-.486 4.2784-1.458 5.9319-.971 1.6448-2.309 2.9147-4.014 3.8096-1.704.8864-3.656 1.3296-5.855 1.3296-2.455 0-4.611-.5412-6.469-1.6236-1.858-1.0909-3.307-2.6378-4.346-4.6406-1.032-2.0114-1.547-4.3978-1.547-7.1591 0-2.1222.307-4.0142.92-5.6762.622-1.6704 1.492-3.0852 2.608-4.2443 1.117-1.1591 2.416-2.0412 3.899-2.6463 1.483-.6051 3.09-.9077 4.82-.9077 1.483 0 2.864.2174 4.142.652 1.278.4262 2.412 1.0313 3.401 1.8154.997.784 1.811 1.7173 2.441 2.7997.631 1.0738 1.036 2.2585 1.215 3.5539h-5.625Z"/>
</svg>