<svg width="32" height="32" viewBox="0 0 32 32" fill="none" xmlns="http://www.w3.org/2000/svg">
<mask id="mask0_15_697" style="mask-type:alpha" maskUnits="userSpaceOnUse" x="0" y="0" width="32" height="32">
<rect width="32" height="32" fill="#D9D9D9"/>
</mask>
<g mask="url(#mask0_15_697)">
<path d="M5.50425 23.5126C5.04171 23.5126 4.66675 23.1377 4.66675 22.6751C4.66675 22.2126 5.04171 21.8376 5.50425 21.8376H26.4959C26.9585 21.8376 27.3334 22.2126 27.3334 22.6751C27.3334 23.1377 26.9585 23.5126 26.4959 23.5126H5.50425ZM5.50441 16.8376C5.04178 16.8376 4.66675 16.4626 4.66675 16C4.66675 15.5373 5.04178 15.1623 5.50442 15.1623H26.4957C26.9584 15.1623 27.3334 15.5373 27.3334 16C27.3334 16.4626 26.9584 16.8376 26.4957 16.8376H5.50441ZM5.50425 10.1623C5.04171 10.1623 4.66675 9.78734 4.66675 9.3248C4.66675 8.86227 5.04171 8.4873 5.50425 8.4873H26.4959C26.9585 8.4873 27.3334 8.86227 27.3334 9.3248C27.3334 9.78734 26.9585 10.1623 26.4959 10.1623H5.50425Z" fill="white"/>
</g>
</svg>
