<svg width="32" height="32" viewBox="0 0 32 32" fill="none" xmlns="http://www.w3.org/2000/svg">
<mask id="mask0_232_2227" style="mask-type:alpha" maskUnits="userSpaceOnUse" x="0" y="0" width="32" height="32">
<rect width="32" height="32" fill="#D9D9D9"/>
</mask>
<g mask="url(#mask0_232_2227)">
<path d="M22.8053 15.1623L15.4073 7.77267C15.0798 7.44549 15.0804 6.91444 15.4087 6.588C15.7355 6.26299 16.2637 6.26373 16.5897 6.58967L25.2929 15.2929C25.6834 15.6834 25.6834 16.3166 25.2929 16.7071L16.5897 25.4103C16.2637 25.7363 15.7355 25.737 15.4087 25.412C15.0804 25.0856 15.0798 24.5545 15.4073 24.2273L22.8053 16.8377L0.837668 16.8377C0.375037 16.8377 8.33783e-07 16.4626 8.74228e-07 16C9.14672e-07 15.5374 0.375037 15.1623 0.837668 15.1623L22.8053 15.1623Z" fill="#FF7710"/>
</g>
</svg>
