<svg width="16" height="16" viewBox="0 0 16 16" fill="none" xmlns="http://www.w3.org/2000/svg">
<g clip-path="url(#clip0_22_952)">
<path d="M6.02892 0C7.36065 0 8.69478 0 10.0265 0C10.2123 0.00965455 10.398 0.0241364 10.5862 0.0289636C11.2473 0.0410318 11.9083 0.0675818 12.5549 0.219641C13.7442 0.502037 14.6996 1.11027 15.3027 2.20124C15.7008 2.9205 15.889 3.70252 15.9276 4.51591C16.0265 6.67129 16.0169 8.82667 15.9493 10.982C15.9324 11.4986 15.8818 12.0247 15.7684 12.5292C15.3944 14.1825 14.3956 15.2735 12.7479 15.7321C12.0868 15.9155 11.4041 15.9614 10.7213 15.9686C9.13869 15.9855 7.55606 15.9952 5.97343 16C5.17729 16 4.38115 15.971 3.59708 15.8117C2.32808 15.5559 1.32928 14.9042 0.677896 13.765C0.272589 13.0529 0.127836 12.2661 0.0602848 11.4624C0.0385719 11.1944 0.0192715 10.9241 -0.00244141 10.6562C-0.00244141 8.85322 -0.00244141 7.05265 -0.00244141 5.24966C0.00720877 5.17242 0.0144464 5.0976 0.0240966 5.02036C0.0771726 4.54488 0.103711 4.06456 0.190562 3.59632C0.523493 1.80057 1.80214 0.531 3.58984 0.181023C4.26776 0.0506864 4.95534 0.0386182 5.6405 0.0241364C5.77078 0.0217227 5.89864 0.00724091 6.02892 0ZM14.5404 6.0003C14.5114 5.29311 14.497 4.58108 14.3884 3.88596C14.2123 2.74913 13.5488 1.98642 12.4173 1.69437C11.9662 1.57852 11.4982 1.49404 11.035 1.47715C9.93242 1.4337 6.13507 1.42887 5.33652 1.44094C4.74786 1.4506 4.16161 1.47715 3.58743 1.62679C2.6586 1.87298 2.01686 2.42329 1.71047 3.35013C1.47886 4.0525 1.42096 4.779 1.41372 5.50792C1.39925 7.20471 1.39683 8.90391 1.41372 10.6007C1.41855 11.1076 1.46921 11.6241 1.57054 12.1189C1.82386 13.3595 2.57174 14.1463 3.83592 14.3708C4.36185 14.4649 4.89985 14.5156 5.43302 14.5253C6.94328 14.5518 8.45353 14.5615 9.96137 14.5446C10.6562 14.5373 11.3582 14.4963 12.0458 14.3973C13.2714 14.2187 14.0916 13.4512 14.3474 12.2661C14.4487 11.7954 14.5066 11.3079 14.5187 10.8276C14.5428 9.81385 14.5645 6.59406 14.5428 6.0003H14.5404Z" fill="white"/>
<path d="M7.99518 3.8932C10.2606 3.88837 12.0893 5.71308 12.1013 7.98673C12.1134 10.2531 10.2702 12.0996 7.9976 12.0996C5.7298 12.0996 3.90109 10.2676 3.89868 7.99879C3.89868 5.72998 5.72257 3.89803 7.99277 3.8932H7.99518ZM10.661 8.00121C10.661 6.52406 9.48372 5.33897 8.00966 5.33414C6.53559 5.32931 5.3438 6.51199 5.33897 7.9819C5.33415 9.46387 6.52112 10.6562 8.00001 10.6562C9.47407 10.6562 10.6586 9.47353 10.661 7.99879V8.00121Z" fill="white"/>
<path d="M13.2208 3.7242C13.2232 4.2552 12.8058 4.68242 12.2799 4.68725C11.7467 4.69207 11.31 4.26486 11.3076 3.73627C11.3076 3.20044 11.7322 2.77323 12.2678 2.77564C12.7986 2.77564 13.2184 3.19562 13.2208 3.72662V3.7242Z" fill="white"/>
</g>
<defs>
<clipPath id="clip0_22_952">
<rect width="16" height="16" fill="white"/>
</clipPath>
</defs>
</svg>
