<svg width="16" height="16" viewBox="0 0 16 16" fill="none" xmlns="http://www.w3.org/2000/svg">
<path fill-rule="evenodd" clip-rule="evenodd" d="M12.1691 1.66531C11.3632 1.55692 10.2987 1.5555 8.79007 1.5555H7.20982C5.7013 1.5555 4.63697 1.55712 3.83122 1.66559C3.04463 1.77149 2.60469 1.96811 2.28606 2.28647C1.96773 2.60453 1.77111 3.04413 1.66531 3.83084C1.55692 4.63671 1.5555 5.70119 1.5555 7.20982V8.79007C1.5555 10.2986 1.55712 11.3629 1.66559 12.1687C1.77149 12.9553 1.96811 13.3952 2.28647 13.7138C2.60453 14.0322 3.04413 14.2288 3.83084 14.3346C4.63671 14.443 5.70119 14.4444 7.20982 14.4444H8.79007C10.2986 14.4444 11.3629 14.4428 12.1687 14.3343C12.9553 14.2284 13.3952 14.0318 13.7138 13.7134C14.0322 13.3954 14.2288 12.9558 14.3346 12.1691C14.443 11.3632 14.4444 10.2987 14.4444 8.79007V7.20982C14.4444 5.7013 14.4428 4.63697 14.3343 3.83122C14.2284 3.04463 14.0318 2.60469 13.7134 2.28606C13.3954 1.96773 12.9558 1.77111 12.1691 1.66531ZM12.3468 0.343871C13.2814 0.469568 14.0495 0.735968 14.6566 1.34366C15.2635 1.95106 15.5299 2.71881 15.6557 3.65332C15.7777 4.55977 15.7777 5.7161 15.7777 7.16707V8.83973C15.7777 10.2874 15.7778 11.4417 15.656 12.3468C15.5303 13.2814 15.2639 14.0495 14.6562 14.6566C14.0488 15.2635 13.2811 15.5299 12.3466 15.6557C11.4401 15.7777 10.2838 15.7777 8.83282 15.7777H7.16017C5.71253 15.7777 4.55819 15.7778 3.65311 15.656C2.71853 15.5303 1.95042 15.2639 1.34325 14.6562C0.736374 14.0488 0.469987 13.2811 0.344179 12.3466C0.222147 11.4401 0.222157 10.2838 0.222168 8.83285L0.222168 7.16018C0.222152 5.71254 0.22214 4.5582 0.343871 3.65311C0.469568 2.71853 0.735968 1.95042 1.34366 1.34325C1.95106 0.736374 2.71881 0.469987 3.65332 0.344179C4.55976 0.222147 5.71609 0.222157 7.16704 0.222168L8.83971 0.222168C10.2874 0.222152 11.4417 0.22214 12.3468 0.343871Z" fill="#F2F1F0"/>
<path d="M11.5555 5.62953C12.2101 5.62953 12.7407 5.0989 12.7407 4.44434C12.7407 3.78978 12.2101 3.25916 11.5555 3.25916C10.901 3.25916 10.3704 3.78978 10.3704 4.44434C10.3704 5.0989 10.901 5.62953 11.5555 5.62953Z" fill="#F2F1F0"/>
<path fill-rule="evenodd" clip-rule="evenodd" d="M7.99993 6.29647C7.059 6.29647 6.29622 7.05924 6.29622 8.00017C6.29622 8.9411 7.059 9.70388 7.99993 9.70388C8.94086 9.70388 9.70363 8.9411 9.70363 8.00017C9.70363 7.05924 8.94086 6.29647 7.99993 6.29647ZM4.96289 8.00017C4.96289 6.32286 6.32262 4.96313 7.99993 4.96313C9.67724 4.96313 11.037 6.32286 11.037 8.00017C11.037 9.67748 9.67724 11.0372 7.99993 11.0372C6.32262 11.0372 4.96289 9.67748 4.96289 8.00017Z" fill="#F2F1F0"/>
</svg>
