<svg width="30" height="30" viewBox="0 0 30 30" fill="none" xmlns="http://www.w3.org/2000/svg">
<g clip-path="url(#clip0_232_1808)">
<path d="M23.4149 8.30248C23.7216 10.3492 24.0779 11.5207 22.6139 11.5207C20.6219 11.5207 20.6211 6.80623 17.2499 4.12048C13.9146 1.46398 11.4269 2.10973 11.3744 2.12398C11.3737 2.12473 11.3722 2.12623 11.3714 2.12698C14.1494 4.44598 12.5999 8.25748 10.7819 9.30823C9.0374 10.3162 7.04615 9.04498 8.08865 6.05323C5.7959 9.18823 3.81665 12.987 3.81665 16.7722C3.81665 22.9485 8.82365 27.9555 14.9999 27.9555C21.1761 27.9555 26.1831 22.9485 26.1831 16.7722C26.1831 13.854 25.0041 10.9275 23.4149 8.30248Z" fill="#FF7710"/>
<path d="M15 15.0134C15 15.0134 19.863 17.8139 19.863 21.7267C19.863 24.4124 17.6857 26.5897 15 26.5897C12.3142 26.5897 10.137 24.4124 10.137 21.7267C10.137 17.8139 15 15.0134 15 15.0134Z" fill="#FFB175"/>
</g>
<defs>
<clipPath id="clip0_232_1808">
<rect width="30" height="30" fill="white"/>
</clipPath>
</defs>
</svg>
