<svg width="20" height="46" viewBox="0 0 20 46" fill="none" xmlns="http://www.w3.org/2000/svg">
<path fill-rule="evenodd" clip-rule="evenodd" d="M17.8998 44.5021C17.4505 44.1737 11.1185 37.7283 7.60719 36.9261C6.31674 36.6323 5.85508 35.8327 6.80975 35.5685C7.51954 35.3774 9.87052 33.4596 10.2612 33.1657C10.2494 33.1452 5.54324 28.7819 5.59078 23.3006C5.59427 23.0936 5.25298 22.6208 4.78985 22.1501C1.0221 18.4889 -0.557364 10.9945 0.821266 3.39145C0.950393 2.71546 1.07234 1.74292 1.1053 1.23182C1.24899 -0.792105 4.2983 -0.529657 3.57602 3.78295C2.59517 9.70742 2.84806 13.7441 4.4599 17.6249C5.39212 19.9024 5.47614 19.9769 5.78377 18.8288C7.17461 13.6382 14.8597 13.9989 17.1691 18.8986C18.9181 22.5908 15.5078 26.6511 9.84814 25.1346C9.02345 24.9136 8.35181 24.7683 8.33881 24.8169C8.07651 25.9251 10.1454 30.8816 11.3635 32.0919C11.5951 32.3273 14.2002 30.7549 14.2643 30.3215C14.3784 29.5721 16.2265 29.79 16.6633 30.6177C16.7655 30.8184 17.0562 32.1268 17.2885 33.5235C17.7971 36.6061 18.4267 38.5253 19.3225 41.521C20.0667 44.1121 20.0579 46.0855 17.8998 44.5021ZM8.24096 20.9777C8.09843 22.9327 9.86725 24.4811 11.7904 24.0952C14.4471 23.5592 15.1484 21.4594 14.7818 19.5934C13.8109 14.5498 8.58296 16.3379 8.24096 20.9777Z" fill="#F78D3B"/>
</svg>
