<svg width="40" height="40" viewBox="0 0 40 40" fill="none" xmlns="http://www.w3.org/2000/svg">
<g clip-path="url(#clip0_232_1937)">
<path d="M20 36.303C28.3472 36.303 35.114 29.2806 35.114 20.618C35.114 11.9554 28.3472 4.93298 20 4.93298C11.6528 4.93298 4.88599 11.9554 4.88599 20.618C4.88599 29.2806 11.6528 36.303 20 36.303Z" fill="#FFC84D"/>
<path d="M7.74707 27.416C10.7156 27.416 13.1221 25.1591 13.1221 22.375C13.1221 19.5909 10.7156 17.334 7.74707 17.334C4.77854 17.334 2.37207 19.5909 2.37207 22.375C2.37207 25.1591 4.77854 27.416 7.74707 27.416Z" fill="#FFC84D"/>
<path d="M32.2532 27.416C35.2217 27.416 37.6282 25.1591 37.6282 22.375C37.6282 19.5909 35.2217 17.334 32.2532 17.334C29.2846 17.334 26.8782 19.5909 26.8782 22.375C26.8782 25.1591 29.2846 27.416 32.2532 27.416Z" fill="#FFC84D"/>
<path d="M16.2281 23.493C17.0173 23.493 17.6571 22.7252 17.6571 21.778C17.6571 20.8308 17.0173 20.063 16.2281 20.063C15.4389 20.063 14.7991 20.8308 14.7991 21.778C14.7991 22.7252 15.4389 23.493 16.2281 23.493Z" fill="black"/>
<path d="M23.772 23.493C24.5612 23.493 25.201 22.7252 25.201 21.778C25.201 20.8308 24.5612 20.063 23.772 20.063C22.9828 20.063 22.343 20.8308 22.343 21.778C22.343 22.7252 22.9828 23.493 23.772 23.493Z" fill="black"/>
<path d="M21.7771 26.822C22.0981 26.822 22.3261 27.13 22.2411 27.44C21.9701 28.424 21.0691 29.146 20.0001 29.146C18.9311 29.146 18.0291 28.423 17.7591 27.44C17.6741 27.13 17.9021 26.822 18.2231 26.822H21.7771Z" fill="#5C2F17"/>
<path d="M19.5242 9.24004C19.4712 9.93904 20.1622 10.447 20.8152 10.193C22.3362 9.60104 24.3372 8.45304 24.3202 6.51204C24.2932 3.38404 20.4252 3.61204 19.5082 3.78504C18.2222 4.02804 16.7272 4.90704 16.0542 5.33604C15.9212 5.42104 15.9522 5.62204 16.1052 5.66004C17.1312 5.91204 19.7102 6.79204 19.5232 9.24104L19.5242 9.24004Z" fill="#FF9000"/>
</g>
<defs>
<clipPath id="clip0_232_1937">
<rect width="40" height="40" fill="white"/>
</clipPath>
</defs>
</svg>
