<svg width="40" height="40" viewBox="0 0 40 40" fill="none" xmlns="http://www.w3.org/2000/svg">
<g clip-path="url(#clip0_232_1926)">
<path d="M35.4171 15.435H30.8391C29.1364 15.435 27.7561 16.8153 27.7561 18.518V23.096C27.7561 24.7987 29.1364 26.179 30.8391 26.179H35.4171C37.1198 26.179 38.5001 24.7987 38.5001 23.096V18.518C38.5001 16.8153 37.1198 15.435 35.4171 15.435Z" fill="#2F81F9"/>
<path d="M23.3161 5.81197C23.3161 3.9806 21.8315 2.49597 20.0001 2.49597C18.1687 2.49597 16.6841 3.9806 16.6841 5.81197V9.92397C16.6841 11.7553 18.1687 13.24 20.0001 13.24C21.8315 13.24 23.3161 11.7553 23.3161 9.92397V5.81197Z" fill="#1E6EF4"/>
<path d="M9.161 15.435H4.583C2.88031 15.435 1.5 16.8153 1.5 18.518V23.096C1.5 24.7987 2.88031 26.179 4.583 26.179H9.161C10.8637 26.179 12.244 24.7987 12.244 23.096V18.518C12.244 16.8153 10.8637 15.435 9.161 15.435Z" fill="#2F81F9"/>
<path d="M29.473 6.10895H10.356C7.51785 6.10895 5.21704 8.40976 5.21704 11.2479V30.3649C5.21704 33.2031 7.51785 35.5039 10.356 35.5039H29.473C32.3112 35.5039 34.612 33.2031 34.612 30.3649V11.2479C34.612 8.40976 32.3112 6.10895 29.473 6.10895Z" fill="#93C9FF"/>
<path d="M25.008 20.467C26.2899 20.467 27.329 19.4278 27.329 18.146C27.329 16.8641 26.2899 15.825 25.008 15.825C23.7262 15.825 22.687 16.8641 22.687 18.146C22.687 19.4278 23.7262 20.467 25.008 20.467Z" fill="black"/>
<path d="M14.9919 20.467C16.2738 20.467 17.3129 19.4278 17.3129 18.146C17.3129 16.8641 16.2738 15.825 14.9919 15.825C13.71 15.825 12.6709 16.8641 12.6709 18.146C12.6709 19.4278 13.71 20.467 14.9919 20.467Z" fill="black"/>
<path d="M23.2659 27.91H16.7339C15.8829 27.91 15.1919 27.219 15.1919 26.368C15.1919 25.517 15.8829 24.826 16.7339 24.826H23.2659C24.1169 24.826 24.8079 25.517 24.8079 26.368C24.8079 27.219 24.1169 27.91 23.2659 27.91Z" fill="white"/>
</g>
<defs>
<clipPath id="clip0_232_1926">
<rect width="40" height="40" fill="white"/>
</clipPath>
</defs>
</svg>
