<svg width="40" height="40" viewBox="0 0 40 40" fill="none" xmlns="http://www.w3.org/2000/svg">
<g clip-path="url(#clip0_232_1950)">
<path d="M35.2441 24.293L36.9551 23.095C37.3641 22.808 37.4641 22.244 37.1771 21.835L35.7931 19.858C35.5751 19.547 35.5751 19.132 35.7931 18.82L36.9911 17.109C37.2781 16.7 37.1781 16.136 36.7691 15.849L34.7921 14.465C34.4811 14.247 34.3391 13.857 34.4371 13.49L34.9781 11.472C35.1071 10.989 34.8211 10.494 34.3381 10.364L32.0071 9.73899C31.6401 9.64099 31.3731 9.32299 31.3401 8.94399L31.1581 6.86299C31.1141 6.36499 30.6761 5.99699 30.1781 6.04099L27.7731 6.25099C27.3941 6.28399 27.0351 6.07699 26.8741 5.73199L25.9911 3.83899C25.7801 3.38599 25.2421 3.18999 24.7891 3.40199L22.6011 4.42199C22.2561 4.58299 21.8481 4.51099 21.5791 4.24199L20.1021 2.76499C19.7491 2.41199 19.1761 2.41199 18.8231 2.76499L17.1161 4.47199C16.8471 4.74099 16.4391 4.81299 16.0941 4.65199L14.2011 3.76899C13.7481 3.55799 13.2101 3.75399 12.9991 4.20699L11.9791 6.39499C11.8181 6.73999 11.4591 6.94699 11.0801 6.91399L8.99907 6.73199C8.50107 6.68799 8.06307 7.05699 8.01907 7.55399L7.80907 9.95799C7.77607 10.337 7.50907 10.654 7.14207 10.753L5.12407 11.294C4.64107 11.423 4.35507 11.919 4.48407 12.402L5.10907 14.733C5.20707 15.1 5.06607 15.49 4.75407 15.708L3.04307 16.906C2.63407 17.193 2.53407 17.757 2.82107 18.166L4.20507 20.143C4.42307 20.454 4.42307 20.869 4.20507 21.181L3.00707 22.892C2.72007 23.301 2.82007 23.865 3.22907 24.152L5.20607 25.536C5.51707 25.754 5.65907 26.144 5.56107 26.511L5.02007 28.529C4.89107 29.012 5.17707 29.507 5.66007 29.637L7.99107 30.262C8.35807 30.36 8.62507 30.678 8.65807 31.057L8.84007 33.138C8.88407 33.636 9.32207 34.004 9.82007 33.96L12.2241 33.75C12.6031 33.717 12.9621 33.924 13.1231 34.269L14.0061 36.162C14.2171 36.615 14.7551 36.811 15.2081 36.599L17.3961 35.579C17.7411 35.418 18.1491 35.49 18.4181 35.759L19.8951 37.236C20.2481 37.589 20.8211 37.589 21.1741 37.236L22.8811 35.529C23.1501 35.26 23.5581 35.188 23.9031 35.349L25.7961 36.232C26.2491 36.443 26.7871 36.247 26.9981 35.795L28.0181 33.607C28.1791 33.262 28.5381 33.055 28.9171 33.088L30.9981 33.27C31.4961 33.314 31.9341 32.945 31.9781 32.448L32.1881 30.043C32.2211 29.664 32.4881 29.347 32.8551 29.248L34.8731 28.707C35.3561 28.578 35.6421 28.082 35.5131 27.599L34.8881 25.268C34.7901 24.901 34.9321 24.511 35.2441 24.293Z" fill="#5E3A34"/>
<path d="M25.1952 11.891H14.8362V24.578H25.1952V11.891Z" fill="#FE9C00"/>
<path d="M20.016 32.504C25.5123 32.504 29.968 30.1167 29.968 27.172C29.968 24.2272 25.5123 21.84 20.016 21.84C14.5196 21.84 10.064 24.2272 10.064 27.172C10.064 30.1167 14.5196 32.504 20.016 32.504Z" fill="#FE9C00"/>
<path d="M14.8362 22.919L19.3892 17.787C19.7222 17.412 20.3082 17.413 20.6402 17.789L25.1642 22.919H14.8362Z" fill="#FE7400"/>
<path d="M20.016 21.84C18.111 21.84 16.337 22.132 14.824 22.63L18.967 26.773C19.547 27.352 20.486 27.352 21.066 26.773L25.209 22.63C23.696 22.132 21.921 21.84 20.016 21.84Z" fill="#4C270F"/>
<path d="M18.0262 16.6839C18.5624 16.6839 18.9972 16.2492 18.9972 15.7129C18.9972 15.1767 18.5624 14.7419 18.0262 14.7419C17.4899 14.7419 17.0552 15.1767 17.0552 15.7129C17.0552 16.2492 17.4899 16.6839 18.0262 16.6839Z" fill="black"/>
<path d="M21.8101 16.6839C22.3464 16.6839 22.7811 16.2492 22.7811 15.7129C22.7811 15.1767 22.3464 14.7419 21.8101 14.7419C21.2738 14.7419 20.8391 15.1767 20.8391 15.7129C20.8391 16.2492 21.2738 16.6839 21.8101 16.6839Z" fill="black"/>
<path d="M17.0661 14.2427C18.2693 13.1052 18.2465 11.1273 17.0153 9.82507C15.784 8.5228 13.8106 8.38925 12.6074 9.52677C11.4043 10.6643 11.4271 12.6421 12.6583 13.9444C13.8895 15.2467 15.863 15.3802 17.0661 14.2427Z" fill="#FE9C00"/>
<path d="M27.3427 13.9445C28.5739 12.6422 28.5967 10.6643 27.3935 9.52683C26.1904 8.38931 24.2169 8.52287 22.9857 9.82514C21.7545 11.1274 21.7317 13.1052 22.9348 14.2428C24.138 15.3803 26.1114 15.2467 27.3427 13.9445Z" fill="#FE9C00"/>
</g>
<defs>
<clipPath id="clip0_232_1950">
<rect width="40" height="40" fill="white"/>
</clipPath>
</defs>
</svg>
