<svg width="729" height="117" viewBox="0 0 729 117" fill="none" xmlns="http://www.w3.org/2000/svg">
<path d="M40.375 115H0.53125V1.875H40.8438C74.9062 1.875 95.6875 23.125 95.6875 58.2812C95.6875 93.75 74.9062 115 40.375 115ZM23.9688 94.8438H39.4375C61 94.8438 72.25 83.5938 72.25 58.2812C72.25 33.125 61 22.0312 39.5938 22.0312H23.9688V94.8438ZM177.919 1.875H201.512V75.3125C201.512 100.156 182.762 116.562 154.637 116.562C126.512 116.562 107.919 100.156 107.919 75.3125V1.875H131.356V73.4375C131.356 86.4062 140.575 95.9375 154.637 95.9375C168.856 95.9375 177.919 86.4062 177.919 73.4375V1.875ZM215.775 115V1.875H239.212V52.0312H240.775L281.869 1.875H310.15L267.962 52.5L310.619 115H282.494L251.087 68.2812L239.212 82.6562V115H215.775ZM377.538 34.2188C376.6 25.3125 369.413 20 358.006 20C346.131 20 339.569 25.4688 339.413 32.9688C339.256 41.0938 347.85 44.8438 357.538 47.0312L367.694 49.5312C387.069 53.9062 401.6 63.75 401.6 82.6562C401.6 103.438 385.35 116.562 357.85 116.562C330.506 116.562 313.006 103.906 312.381 79.6875H335.194C335.975 91.0938 345.038 96.875 357.538 96.875C369.881 96.875 377.85 91.0938 377.85 82.6562C377.85 75 370.819 71.4062 358.475 68.2812L346.131 65.3125C327.069 60.625 315.35 51.0938 315.35 34.5312C315.35 13.9062 333.475 0.3125 358.163 0.3125C383.163 0.3125 399.725 14.2188 400.038 34.2188H377.538ZM482.112 1.875H505.706V75.3125C505.706 100.156 486.956 116.562 458.831 116.562C430.706 116.562 412.112 100.156 412.112 75.3125V1.875H435.55V73.4375C435.55 86.4062 444.769 95.9375 458.831 95.9375C473.05 95.9375 482.112 86.4062 482.112 73.4375V1.875ZM614.344 1.875V115H594.031L544.344 43.125H543.406V115H519.969V1.875H540.594L589.969 73.75H591.062V1.875H614.344ZM703.763 38.2812C700.638 27.6562 692.044 21.0938 679.7 21.0938C662.2 21.0938 650.325 34.5312 650.325 58.2812C650.325 82.1875 661.888 95.7812 679.856 95.7812C696.028 95.7812 705.638 86.6406 705.95 72.3438H681.419V54.6875H728.606V68.75C728.606 98.4375 708.294 116.562 679.7 116.562C647.981 116.562 626.419 94.375 626.419 58.5938C626.419 21.875 649.388 0.3125 679.231 0.3125C704.7 0.3125 724.388 15.9375 727.513 38.2812H703.763Z" fill="#971B44" fill-opacity="0.2"/>
</svg>
