<svg width="229" height="208" viewBox="0 0 229 208" fill="none" xmlns="http://www.w3.org/2000/svg">
<path d="M9.85413 161V47.875H33.2916V141.625H82.0416V161H9.85413ZM115.835 47.875V161H92.3979V47.875H115.835ZM130.098 161V47.875H153.535V98.0312H155.098L196.192 47.875H224.473L182.285 98.5L224.942 161H196.817L165.41 114.281L153.535 128.656V161H130.098ZM231.392 161V47.875H307.329V67.25H254.829V94.75H303.423V114.125H254.829V141.625H307.485V161H231.392ZM320.81 161V47.875H344.248V141.625H392.998V161H320.81ZM426.792 47.875V161H403.354V47.875H426.792ZM544.648 104.438C544.648 141.312 521.679 162.562 491.835 162.562C461.679 162.562 438.867 141.156 438.867 104.438C438.867 67.5625 461.679 46.3125 491.835 46.3125C521.679 46.3125 544.648 67.5625 544.648 104.438ZM520.742 104.438C520.742 80.2188 509.335 67.0938 491.835 67.0938C474.335 67.0938 462.773 80.2188 462.773 104.438C462.773 128.656 474.335 141.781 491.835 141.781C509.335 141.781 520.742 128.656 520.742 104.438ZM651.098 47.875V161H630.785L581.098 89.125H580.16V161H556.723V47.875H577.348L626.723 119.75H627.817V47.875H651.098Z" fill="#FF7710" fill-opacity="0.2"/>
</svg>
