<svg width="642" height="117" viewBox="0 0 642 117" fill="none" xmlns="http://www.w3.org/2000/svg">
<path d="M0.53125 115V1.875H23.9688V95.625H72.7188V115H0.53125ZM106.512 1.875V115H83.075V1.875H106.512ZM120.775 115V1.875H144.213V52.0312H145.775L186.869 1.875H215.15L172.963 52.5L215.619 115H187.494L156.088 68.2812L144.213 82.6562V115H120.775ZM222.069 115V1.875H298.006V21.25H245.506V48.75H294.1V68.125H245.506V95.625H298.163V115H222.069ZM311.487 115V1.875H334.925V95.625H383.675V115H311.487ZM417.469 1.875V115H394.031V1.875H417.469ZM535.325 58.4375C535.325 95.3125 512.356 116.562 482.513 116.562C452.356 116.562 429.544 95.1562 429.544 58.4375C429.544 21.5625 452.356 0.3125 482.513 0.3125C512.356 0.3125 535.325 21.5625 535.325 58.4375ZM511.419 58.4375C511.419 34.2188 500.013 21.0938 482.513 21.0938C465.013 21.0938 453.45 34.2188 453.45 58.4375C453.45 82.6562 465.013 95.7812 482.513 95.7812C500.013 95.7812 511.419 82.6562 511.419 58.4375ZM641.775 1.875V115H621.463L571.775 43.125H570.838V115H547.4V1.875H568.025L617.4 73.75H618.494V1.875H641.775Z" fill="#FF7710" fill-opacity="0.2"/>
</svg>
