<svg width="246" height="208" viewBox="0 0 246 208" fill="none" xmlns="http://www.w3.org/2000/svg">
<path d="M49.375 161H9.53125V47.875H49.8438C83.9062 47.875 104.688 69.125 104.688 104.281C104.688 139.75 83.9062 161 49.375 161ZM32.9688 140.844H48.4375C70 140.844 81.25 129.594 81.25 104.281C81.25 79.125 70 68.0312 48.5938 68.0312H32.9688V140.844ZM186.919 47.875H210.512V121.312C210.512 146.156 191.762 162.562 163.637 162.562C135.512 162.562 116.919 146.156 116.919 121.312V47.875H140.356V119.438C140.356 132.406 149.575 141.938 163.637 141.938C177.856 141.938 186.919 132.406 186.919 119.438V47.875ZM224.775 161V47.875H248.212V98.0312H249.775L290.869 47.875H319.15L276.962 98.5L319.619 161H291.494L260.087 114.281L248.212 128.656V161H224.775ZM386.538 80.2188C385.6 71.3125 378.413 66 367.006 66C355.131 66 348.569 71.4688 348.413 78.9688C348.256 87.0938 356.85 90.8438 366.538 93.0312L376.694 95.5312C396.069 99.9062 410.6 109.75 410.6 128.656C410.6 149.438 394.35 162.562 366.85 162.562C339.506 162.562 322.006 149.906 321.381 125.688H344.194C344.975 137.094 354.038 142.875 366.538 142.875C378.881 142.875 386.85 137.094 386.85 128.656C386.85 121 379.819 117.406 367.475 114.281L355.131 111.312C336.069 106.625 324.35 97.0938 324.35 80.5312C324.35 59.9062 342.475 46.3125 367.163 46.3125C392.163 46.3125 408.725 60.2188 409.038 80.2188H386.538ZM491.112 47.875H514.706V121.312C514.706 146.156 495.956 162.562 467.831 162.562C439.706 162.562 421.112 146.156 421.112 121.312V47.875H444.55V119.438C444.55 132.406 453.769 141.938 467.831 141.938C482.05 141.938 491.112 132.406 491.112 119.438V47.875ZM623.344 47.875V161H603.031L553.344 89.125H552.406V161H528.969V47.875H549.594L598.969 119.75H600.062V47.875H623.344ZM712.763 84.2812C709.638 73.6562 701.044 67.0938 688.7 67.0938C671.2 67.0938 659.325 80.5312 659.325 104.281C659.325 128.188 670.888 141.781 688.856 141.781C705.028 141.781 714.638 132.641 714.95 118.344H690.419V100.688H737.606V114.75C737.606 144.438 717.294 162.562 688.7 162.562C656.981 162.562 635.419 140.375 635.419 104.594C635.419 67.875 658.388 46.3125 688.231 46.3125C713.7 46.3125 733.388 61.9375 736.513 84.2812H712.763Z" fill="#971B44" fill-opacity="0.2"/>
</svg>
