<svg width="348" height="286" viewBox="0 0 348 286" fill="none" xmlns="http://www.w3.org/2000/svg">
<path d="M22.8196 140H4.77277V89.0909H22.9688C28.0895 89.0909 32.4977 90.1101 36.1932 92.1484C39.8888 94.1702 42.7309 97.0786 44.7195 100.874C46.7247 104.669 47.7273 109.209 47.7273 114.496C47.7273 119.799 46.7247 124.356 44.7195 128.168C42.7309 131.979 39.8722 134.904 36.1435 136.942C32.4314 138.981 27.9901 140 22.8196 140ZM15.5363 130.778H22.3722C25.554 130.778 28.2304 130.214 30.4013 129.087C32.5888 127.944 34.2294 126.179 35.3232 123.793C36.4335 121.39 36.9887 118.291 36.9887 114.496C36.9887 110.734 36.4335 107.66 35.3232 105.273C34.2294 102.887 32.5971 101.13 30.4262 100.004C28.2553 98.8767 25.5789 98.3132 22.3971 98.3132H15.5363V130.778ZM86.4458 89.0909H97.2093V122.152C97.2093 125.864 96.3227 129.112 94.5495 131.896C92.7929 134.68 90.3319 136.851 87.1667 138.409C84.0015 139.95 80.3142 140.721 76.1049 140.721C71.8791 140.721 68.1835 139.95 65.0183 138.409C61.853 136.851 59.3921 134.68 57.6354 131.896C55.8788 129.112 55.0005 125.864 55.0005 122.152V89.0909H65.764V121.232C65.764 123.171 66.1866 124.895 67.0318 126.403C67.8935 127.911 69.1032 129.096 70.661 129.957C72.2188 130.819 74.0334 131.25 76.1049 131.25C78.193 131.25 80.0076 130.819 81.5488 129.957C83.1066 129.096 84.308 127.911 85.1532 126.403C86.0149 124.895 86.4458 123.171 86.4458 121.232V89.0909ZM105.365 140V89.0909H116.128V111.538H116.8L135.12 89.0909H148.021L129.129 111.886L148.245 140H135.369L121.423 119.07L116.128 125.533V140H105.365ZM180.134 103.732C179.935 101.727 179.081 100.169 177.573 99.0589C176.065 97.9486 174.019 97.3935 171.433 97.3935C169.677 97.3935 168.194 97.642 166.984 98.1392C165.774 98.6198 164.846 99.291 164.2 100.153C163.57 101.014 163.255 101.992 163.255 103.086C163.222 103.997 163.413 104.793 163.827 105.472C164.258 106.152 164.846 106.74 165.592 107.237C166.338 107.718 167.199 108.14 168.177 108.505C169.155 108.853 170.199 109.151 171.309 109.4L175.883 110.494C178.104 110.991 180.142 111.654 181.998 112.482C183.854 113.311 185.462 114.33 186.82 115.54C188.179 116.75 189.232 118.175 189.977 119.815C190.74 121.456 191.129 123.337 191.146 125.458C191.129 128.574 190.334 131.275 188.759 133.562C187.202 135.832 184.948 137.597 181.998 138.857C179.065 140.099 175.527 140.721 171.384 140.721C167.274 140.721 163.694 140.091 160.645 138.832C157.612 137.572 155.243 135.708 153.536 133.239C151.845 130.753 150.959 127.679 150.876 124.016H161.291C161.407 125.723 161.896 127.148 162.758 128.292C163.636 129.419 164.805 130.272 166.263 130.852C167.738 131.416 169.403 131.697 171.259 131.697C173.082 131.697 174.665 131.432 176.007 130.902C177.366 130.372 178.419 129.634 179.164 128.69C179.91 127.745 180.283 126.66 180.283 125.433C180.283 124.29 179.943 123.329 179.264 122.55C178.601 121.771 177.623 121.108 176.33 120.561C175.054 120.014 173.488 119.517 171.632 119.07L166.089 117.678C161.797 116.634 158.408 115.001 155.922 112.781C153.436 110.56 152.202 107.569 152.218 103.807C152.202 100.724 153.022 98.0315 154.679 95.728C156.353 93.4245 158.648 91.6264 161.565 90.3338C164.481 89.0412 167.796 88.3949 171.508 88.3949C175.286 88.3949 178.584 89.0412 181.401 90.3338C184.235 91.6264 186.439 93.4245 188.014 95.728C189.588 98.0315 190.4 100.7 190.45 103.732H180.134ZM229.131 89.0909H239.894V122.152C239.894 125.864 239.008 129.112 237.235 131.896C235.478 134.68 233.017 136.851 229.852 138.409C226.687 139.95 222.999 140.721 218.79 140.721C214.564 140.721 210.869 139.95 207.703 138.409C204.538 136.851 202.077 134.68 200.321 131.896C198.564 129.112 197.686 125.864 197.686 122.152V89.0909H208.449V121.232C208.449 123.171 208.872 124.895 209.717 126.403C210.579 127.911 211.788 129.096 213.346 129.957C214.904 130.819 216.719 131.25 218.79 131.25C220.878 131.25 222.693 130.819 224.234 129.957C225.792 129.096 226.993 127.911 227.838 126.403C228.7 124.895 229.131 123.171 229.131 121.232V89.0909ZM290.632 89.0909V140H281.335L259.186 107.958H258.814V140H248.05V89.0909H257.496L279.471 121.108H279.918V89.0909H290.632ZM332.582 105.547C332.234 104.337 331.745 103.268 331.115 102.34C330.485 101.396 329.715 100.6 328.803 99.9538C327.909 99.291 326.881 98.7855 325.721 98.4375C324.578 98.0895 323.31 97.9155 321.918 97.9155C319.316 97.9155 317.029 98.5618 315.057 99.8544C313.101 101.147 311.577 103.028 310.483 105.497C309.389 107.95 308.842 110.949 308.842 114.496C308.842 118.042 309.381 121.058 310.458 123.544C311.535 126.03 313.06 127.927 315.032 129.237C317.004 130.529 319.333 131.175 322.017 131.175C324.453 131.175 326.533 130.745 328.257 129.883C329.997 129.004 331.322 127.77 332.234 126.179C333.162 124.588 333.626 122.707 333.626 120.536L335.813 120.859H322.688V112.756H343.992V119.169C343.992 123.643 343.047 127.488 341.158 130.703C339.269 133.902 336.667 136.371 333.352 138.111C330.038 139.834 326.243 140.696 321.967 140.696C317.195 140.696 313.002 139.644 309.389 137.539C305.777 135.418 302.959 132.41 300.938 128.516C298.932 124.605 297.93 119.964 297.93 114.595C297.93 110.469 298.526 106.79 299.72 103.558C300.929 100.31 302.62 97.5592 304.791 95.3054C306.962 93.0516 309.489 91.3364 312.372 90.1598C315.256 88.9832 318.38 88.3949 321.744 88.3949C324.627 88.3949 327.312 88.8175 329.798 89.6626C332.284 90.4912 334.488 91.6678 336.41 93.1925C338.349 94.7171 339.931 96.5317 341.158 98.6364C342.384 100.724 343.171 103.028 343.519 105.547H332.582Z" fill="#AF2F5A"/>
<path d="M4.86202 203V152.091H15.6255V194.126H37.4508V203H4.86202ZM54.6423 152.091V203H43.8788V152.091H54.6423ZM62.798 203V152.091H73.5614V174.538H74.2326L92.5529 152.091H105.454L86.5622 174.886L105.678 203H92.8015L78.8562 182.07L73.5614 188.533V203H62.798ZM110.36 203V152.091H144.664V160.965H121.123V173.096H142.899V181.97H121.123V194.126H144.763V203H110.36ZM152.521 203V152.091H163.284V194.126H185.11V203H152.521ZM202.301 152.091V203H191.538V152.091H202.301ZM257.24 177.545C257.24 183.097 256.187 187.82 254.083 191.714C251.995 195.609 249.144 198.584 245.532 200.638C241.935 202.677 237.892 203.696 233.401 203.696C228.877 203.696 224.817 202.669 221.22 200.614C217.624 198.559 214.782 195.584 212.694 191.69C210.606 187.795 209.562 183.08 209.562 177.545C209.562 171.994 210.606 167.271 212.694 163.376C214.782 159.482 217.624 156.516 221.22 154.477C224.817 152.422 228.877 151.395 233.401 151.395C237.892 151.395 241.935 152.422 245.532 154.477C249.144 156.516 251.995 159.482 254.083 163.376C256.187 167.271 257.24 171.994 257.24 177.545ZM246.327 177.545C246.327 173.949 245.788 170.917 244.711 168.447C243.651 165.978 242.151 164.106 240.212 162.83C238.273 161.554 236.003 160.915 233.401 160.915C230.799 160.915 228.529 161.554 226.59 162.83C224.651 164.106 223.143 165.978 222.066 168.447C221.005 170.917 220.475 173.949 220.475 177.545C220.475 181.142 221.005 184.174 222.066 186.643C223.143 189.113 224.651 190.985 226.59 192.261C228.529 193.537 230.799 194.175 233.401 194.175C236.003 194.175 238.273 193.537 240.212 192.261C242.151 190.985 243.651 189.113 244.711 186.643C245.788 184.174 246.327 181.142 246.327 177.545ZM307.094 152.091V203H297.798L275.649 170.958H275.276V203H264.513V152.091H273.959L295.933 184.108H296.381V152.091H307.094Z" fill="white"/>
<path d="M35.9683 215.091H46.7318V248.152C46.7318 251.864 45.8452 255.112 44.072 257.896C42.3153 260.68 39.8544 262.851 36.6892 264.409C33.5239 265.95 29.8366 266.721 25.6274 266.721C21.4015 266.721 17.706 265.95 14.5407 264.409C11.3755 262.851 8.91453 260.68 7.1579 257.896C5.40127 255.112 4.52296 251.864 4.52296 248.152V215.091H15.2865V247.232C15.2865 249.171 15.709 250.895 16.5542 252.403C17.416 253.911 18.6257 255.096 20.1835 255.957C21.7412 256.819 23.5559 257.25 25.6274 257.25C27.7154 257.25 29.5301 256.819 31.0713 255.957C32.629 255.096 33.8305 253.911 34.6757 252.403C35.5374 250.895 35.9683 249.171 35.9683 247.232V215.091ZM97.4691 215.091V266H88.1722L66.0238 233.958H65.6509V266H54.8874V215.091H64.3334L86.3079 247.108H86.7553V215.091H97.4691ZM116.426 215.091V266H105.662V215.091H116.426ZM133.779 215.091L146.083 253.77H146.556L158.885 215.091H170.817L153.267 266H139.397L121.822 215.091H133.779ZM175.468 266.646C173.827 266.646 172.418 266.066 171.242 264.906C170.082 263.73 169.502 262.321 169.502 260.68C169.502 259.056 170.082 257.664 171.242 256.504C172.418 255.344 173.827 254.764 175.468 254.764C177.059 254.764 178.451 255.344 179.644 256.504C180.837 257.664 181.434 259.056 181.434 260.68C181.434 261.774 181.152 262.777 180.588 263.688C180.042 264.583 179.321 265.304 178.426 265.851C177.531 266.381 176.545 266.646 175.468 266.646Z" fill="white"/>
<path d="M1.41033 31.1774C15.0607 20.6918 23.2515 14.9897 25.9826 14.0711L27.2151 15.1524C27.7237 28.1984 28.3088 38.1451 28.9704 44.9925C29.6321 51.8399 30.0914 56.2697 30.3485 58.2818C30.5987 60.2219 30.7896 61.5494 30.9213 62.2642C31.1082 62.9009 31.4296 63.6337 31.8857 64.4626C32.3348 65.2195 33.039 65.6971 33.9981 65.8954C36.4891 66.3822 39.7282 66.5057 43.7156 66.266L44.0395 69.6176L8.46471 73.055L8.14085 69.7034L10.469 69.4784C18.7745 68.5304 22.8706 66.4977 22.7574 63.3804C22.8241 60.8277 22.6346 57.2448 22.1888 52.6318C21.7361 47.9468 20.735 39.5317 19.1855 27.3865C15.6466 27.7284 10.2606 30.0313 3.02753 34.295L1.41033 31.1774Z" fill="#FF7710"/>
<path d="M77.2145 46.124C86.3696 43.3979 92.343 38.3009 94.4597 30.5433C96.0685 24.6468 94.8374 19.1483 90.9022 14.2349C87.1726 9.39331 82.3317 6.14913 76.4359 4.54047C74.1689 3.92195 71.7113 3.63247 69.0767 3.65139C68.8028 3.65336 68.5322 3.71158 68.2817 3.82245L52.2641 10.9114C51.3742 11.3052 50.897 12.2824 51.1335 13.2264L52.1142 17.1401C52.2438 17.6572 52.5744 18.1012 53.0328 18.3735C53.4912 18.6458 54.0393 18.7238 54.5554 18.5902C58.9075 17.4636 62.5573 16.754 65.5233 16.4411C68.5192 16.1252 70.6761 16.2305 72.1149 16.6231C72.3302 16.6818 72.8473 16.9264 73.7308 17.5973C74.5661 18.2316 75.5948 19.1419 76.825 20.3533C77.7325 21.3423 78.4552 22.6897 78.9323 24.4833C78.9415 24.518 78.9517 24.5525 78.9628 24.5867C79.474 26.1616 79.5035 27.9308 78.9505 29.9578C78.4728 31.7086 77.0005 33.7778 74.0928 36.1208C72.6323 37.2348 70.2159 38.1726 66.6135 38.772C63.0809 39.3598 58.8563 39.4229 53.9112 38.921C52.8201 38.8103 51.8434 39.5989 51.7216 40.6889L51.1008 46.2491C50.9875 47.2632 51.6559 48.1999 52.6516 48.4228L55.2608 49.0067C61.8589 50.8126 66.1443 53.2517 68.497 56.1112C70.7563 58.857 71.4261 62.2274 70.2547 66.5206C68.8108 71.8128 64.6674 76.1788 57.2455 79.4635L57.2317 79.4697C49.8305 82.8128 42.5999 83.4667 35.4599 81.5186C34.0543 81.135 32.678 80.6383 31.3303 80.0274C30.593 79.6931 29.7268 79.8364 29.1363 80.3903L28.276 81.1973C27.7753 81.667 27.5504 82.3607 27.6805 83.0348L28.9 89.3576C29.0444 90.1062 29.6018 90.7076 30.3373 90.9083C43.5761 94.5204 55.577 93.8562 66.2097 88.7356C76.7492 83.7894 83.5004 76.81 85.9891 67.6885C87.2957 62.9 86.5023 58.0581 83.8222 53.273C82.1396 50.2689 79.9291 47.8811 77.2145 46.124Z" fill="#FF7710" stroke="#1C1B1A" stroke-width="4" stroke-linejoin="round"/>
<path fill-rule="evenodd" clip-rule="evenodd" d="M218.189 216H213.322H186L213.322 234.175V253.044V266H249.762V253.044H218.189V216Z" fill="#FF7710"/>
<path fill-rule="evenodd" clip-rule="evenodd" d="M249.762 234.421L277 216H249.762V234.421Z" fill="white"/>
</svg>
